<?xml version="1.0" encoding="UTF-8" standalone="no"?>
<!-- Created with Inkscape (http://www.inkscape.org/) -->

<svg
   xmlns:dc="http://purl.org/dc/elements/1.1/"
   xmlns:cc="http://creativecommons.org/ns#"
   xmlns:rdf="http://www.w3.org/1999/02/22-rdf-syntax-ns#"
   xmlns:svg="http://www.w3.org/2000/svg"
   xmlns="http://www.w3.org/2000/svg"
   xmlns:sodipodi="http://sodipodi.sourceforge.net/DTD/sodipodi-0.dtd"
   xmlns:inkscape="http://www.inkscape.org/namespaces/inkscape"
   width="1478.2985"
   height="1806.5415"
   id="svg2"
   version="1.1"
   inkscape:version="0.48.4 r9939"
   sodipodi:docname="asteroidIcon.svg">
  <defs
     id="defs4" />
  <sodipodi:namedview
     id="base"
     pagecolor="#ffffff"
     bordercolor="#666666"
     borderopacity="1.0"
     inkscape:pageopacity="0.0"
     inkscape:pageshadow="2"
     inkscape:zoom="0.12374369"
     inkscape:cx="3520.0222"
     inkscape:cy="651.41535"
     inkscape:document-units="px"
     inkscape:current-layer="layer1"
     showgrid="false"
     inkscape:window-width="1615"
     inkscape:window-height="1026"
     inkscape:window-x="65"
     inkscape:window-y="24"
     inkscape:window-maximized="1"
     fit-margin-top="0"
     fit-margin-left="0"
     fit-margin-right="0"
     fit-margin-bottom="0" />
  <metadata
     id="metadata7">
    <rdf:RDF>
      <cc:Work
         rdf:about="">
        <dc:format>image/svg+xml</dc:format>
        <dc:type
           rdf:resource="http://purl.org/dc/dcmitype/StillImage" />
        <dc:title></dc:title>
      </cc:Work>
    </rdf:RDF>
  </metadata>
  <g
     inkscape:label="Layer 1"
     inkscape:groupmode="layer"
     id="layer1"
     transform="translate(114.99061,537.92857)">
    <path
       style="fill:#fafafa"
       d="M 568.69101,931.93583 C 610.12968,1109.6283 303.34095,1219.9644 147.77247,1257.3951 58.352156,1300.5712 -30.669604,1212.3221 -49.4422,1108.6173 -362.4459,998.73499 545.94843,673.05149 568.69101,931.93583 z M 87.3744,568.8542 C 54.769533,243.43514 467.4185,672.22801 226.5092,716.7081 104.9083,754.53933 6.7027274,664.3716 87.3744,568.8542 z M 381.3876,393.7991 c 19.98587,-165.33081 29.24805,-138.57345 131.9754,-201.389 47.19512,-23.3877 122.89707,-52.89611 158.10249,6.618 20.17024,79.65845 -19.3915,174.03649 -84.14444,209.39247 23.32758,44.81966 -69.88249,61.01431 -96.30145,68.19183 -63.34121,16.73627 -114.02452,-34.4209 -109.632,-82.8133 z m 377.76992,237.48218 c 44.87068,42.70041 107.14245,121.4584 3.05623,170.80404 C 580.16849,1110.147 428.11169,453.29135 759.15752,631.28128 z M 587.8446,436.3622 c 3.51855,1.15629 -3.27696,2.67051 0,0 z m 107.43724,37.9005 c 10.58152,-60.58002 13.29793,-108.92503 76.50376,-140.9005 48.23044,-43.4021 137.78454,-58.47854 170.75,-39.2271 22.53937,15.8885 30.42453,23.44509 41.4654,35.2267 44.0813,81.30974 -116.80537,224.7213 -153.71547,187.0085 -41.66469,21.0526 -88.69039,10.7675 -125,-23.7027 -3.03315,-7.38141 -22.14931,-6.20877 -10.00369,-18.4049 z M 810.22828,12.8622 c 25.35519,-26.223794 53.18049,-82.063021 92.91119,-70.636276 10.3035,-30.596785 53.62585,-41.694145 85.69841,-11.843844 31.75862,27.161194 -0.59272,64.038423 -16.88961,89.68092 -18.14046,10.606977 -43.68912,29.309698 -47.46267,47.8419 19.52455,-0.42746 -71.02107,51.22156 -52.70001,17.2661 -34.10836,26.18805 -50.93983,-33.936498 -55.92839,-58.33 -3.52892,-5.582383 -6.95847,-7.621811 -5.62892,-13.9788 z m 69.55732,-216.85714 c 16.05155,-21.43278 30.42724,-42.10656 49.00299,-54.62849 20.21063,3.444 82.22911,20.11525 45.24701,-17.94537 -76.37089,-3.39974 1.13502,-38.90886 22.45863,-1.41435 18.33327,35.49817 -15.55572,71.22108 -44.20863,90.35041 -25.10106,14.71785 -54.80969,-17.4246 -72.5,-16.3622 z m 45.68573,-4.06377 c 69.82805,-23.43865 -23.22297,-22.08885 0,0 z m 54.81427,-32.57909 c 10.95401,-9.77745 -5.47393,-8.17636 0,0 z m -76.875,109.93616 c 24.95289,-0.0776 -2.1997,17.27179 0,0 z m 25.5282,914.06384 c 86.9442,-302.67409 532.8724,-142.77798 279.8144,4.9461 -55.9024,49.9908 -123.0632,60.95163 -208.5213,61.7401 -0.31955,38.2446 -92.4009,-27.08983 -71.2931,-66.6862 z m 24.57621,-1191.15959 c 22.95899,-33.93348 56.47569,-51.93255 94.77059,-33.6977 5.5146,9.19625 45.215,-12.50312 18.4615,10.35729 -14.1546,24.14412 -24.5202,35.82345 -44.4486,58.5 -21.1532,22.59756 -63.69529,18.77868 -68.82911,-13.62395 -5.95876,-5.18841 -7.28639,-16.81515 0.0456,-21.53564 z m 29.77059,29.15959 c 7.61336,-2.78191 -0.22836,-7.2936 0,0 z m 7.60374,-2.84025 c 60.20716,-64.28669 30.32476,-19.24477 10.68596,-13.89633 -3.81252,2.54682 -17.83813,10.14001 -10.68596,13.89633 z m 27.97936,558.19942 c 44.4783,-71.40561 63.4692,-21.2366 53.2026,-60.84674 16.214,-39.246553 -1.5699,-19.454744 49.7482,-38.51203 23.6919,-13.167316 89.3351,-13.60633 88.1329,-14.2996 15.6841,-18.335193 92.1955,27.452374 68.334,23.8747 -2.4603,21.07824 -4.9936,30.69594 5.7775,34.2471 0.4316,23.4221 -9.6256,39.36879 -24.2952,62.7812 -9.915,21.949 -41.3941,64.55902 -74.2272,92.56389 -41.9072,15.94721 -71.2693,72.08692 -110.7019,77.21976 -65.8593,-36.26769 58.5394,-68.30213 -33.2769,-87.03655 -43.94636,-7.28549 -34.2615,-52.4311 -22.694,-89.99173 z m 85.6152,95.25093 c -736.3226,520.25992 -368.1613,260.12996 0,0 z m -56.6666,-555.56196 c 12.984,-23.29352 31.6314,-51.9787 56.4683,-47.22417 -29.7035,67.14008 83.0983,-15.70159 16.4924,-10.57348 20.9154,32.62207 -37.7163,-7.82741 -0.4924,-21.17564 74.759,-13.27878 40.1481,60.97731 8.1451,73.92515 -10.5076,13.36882 -28.1556,7.88914 -42.0904,17.31856 -8.5265,7.26809 -52.0879,8.69265 -38.523,-12.27042 z m 45.9093,-21.04814 c 3.4347,-2.33371 -1.9056,-2.8802 0,0 z m 25.559,22.5 c 3.6562,-1.20936 -3.5623,-2.46629 0,0 z m -55.8775,-221.07572 c 5.8226,-25.81638 39.5015,-37.09475 50.0859,-34.29897 39.0997,6.45731 68.7029,82.57651 16.4441,63.79832 -44.9423,-29.98829 -17.787,52.59645 -42.4234,15.77843 1.2865,-25.73587 -25.6195,-21.04813 -24.1066,-45.27778 z m 35.6275,9.78606 c 23.9612,16.99769 0.1653,-27.50523 0,0 z m -34.034,389.90759 c 10.8957,-32.65394 5.3476,-72.6011 24.2552,-94.2942 2.0338,-31.78147 53.8977,-24.749 77.5288,-30.81363 117.833,3.38709 15.0961,115.50687 -44.6576,126.94473 -15.4153,-6.19893 -55.6104,28.095078 -57.1264,-1.8369 z m 25.3011,-8.83264 c 23.2674,-10.09242 22.0526,-40.69298 0,0 z m 13.4829,-79.28529 c 5.3812,-3.83242 -5.3812,-3.83242 0,0 z m 18.0837,13.59518 c -747.91287,820.26987 -373.95643,410.13493 0,0 z m -0.083,-101.59518 c 5.3997,2.37769 -5.2925,3.50528 0,0 z m 10.5,-42 c 3.5623,2.46629 -3.6562,1.20936 0,0 z m 63.4308,259.5 c 14.53,-14.670169 27.8337,-74.11935 35.4602,-36.694816 330.1313,-118.620154 -66.1756,209.964796 -35.4606,36.694816 z m 12.8964,15.08339 c 28.379,-13.261019 -11.8352,-11.440278 0,0 z m 11.7529,12.16661 c -813.57733,724.83332 -406.78867,362.41666 0,0 z m 1.3609,1.25 c 3.4347,-2.33371 -1.9056,-2.8802 0,0 z m 10.559,10.5 c 32.3053,1.447164 15.8516,-34.181193 -1,0.11803 z m 130.0796,-82.75 c -8.7777,-22.48221 -4.3164,10.1116 0,0 z"
       id="path3001"
       inkscape:connector-curvature="0"
       sodipodi:nodetypes="cccccccccccccccccccccccccccccccccccccccccccccccccccccccccccccccccccccccccccccccccccccccccccccccccccccccccccccccccccccccccc" />
  </g>
</svg>
