<?xml version="1.0" encoding="UTF-8" standalone="no"?>
<!-- Created with Inkscape (http://www.inkscape.org/) -->

<svg
   xmlns:dc="http://purl.org/dc/elements/1.1/"
   xmlns:cc="http://creativecommons.org/ns#"
   xmlns:rdf="http://www.w3.org/1999/02/22-rdf-syntax-ns#"
   xmlns:svg="http://www.w3.org/2000/svg"
   xmlns="http://www.w3.org/2000/svg"
   xmlns:sodipodi="http://sodipodi.sourceforge.net/DTD/sodipodi-0.dtd"
   xmlns:inkscape="http://www.inkscape.org/namespaces/inkscape"
   id="svg3272"
   version="1.1"
   inkscape:version="0.48.5 r10040"
   width="2028"
   height="1416"
   sodipodi:docname="Cowboys.jpg">
  <metadata
     id="metadata3278">
    <rdf:RDF>
      <cc:Work
         rdf:about="">
        <dc:format>image/svg+xml</dc:format>
        <dc:type
           rdf:resource="http://purl.org/dc/dcmitype/StillImage" />
        <dc:title></dc:title>
      </cc:Work>
    </rdf:RDF>
  </metadata>
  <defs
     id="defs3276" />
  <sodipodi:namedview
     pagecolor="#ffffff"
     bordercolor="#666666"
     borderopacity="1"
     objecttolerance="10"
     gridtolerance="10"
     guidetolerance="10"
     inkscape:pageopacity="0"
     inkscape:pageshadow="2"
     inkscape:window-width="1615"
     inkscape:window-height="1026"
     id="namedview3274"
     showgrid="false"
     inkscape:zoom="0.59816384"
     inkscape:cx="1014"
     inkscape:cy="708"
     inkscape:window-x="65"
     inkscape:window-y="24"
     inkscape:window-maximized="1"
     inkscape:current-layer="svg3272" />
  <path
     style="fill:#000000"
     d="m 891.64019,1225.8465 c -0.32732,-0.3274 -2.76482,-0.7364 -5.41666,-0.909 -7.79476,-0.5074 -16.37347,-2.2459 -18.16087,-3.6804 -0.91337,-0.733 -3.34924,-2.1878 -5.41307,-3.2329 -2.06382,-1.0451 -4.89923,-3.4037 -6.30089,-5.2414 -1.40167,-1.8376 -2.97454,-3.3412 -3.49528,-3.3412 -0.52073,0 -3.13908,-1.575 -5.81854,-3.5 -2.67945,-1.925 -5.28049,-3.5 -5.78007,-3.5 -1.00253,0 -2.73778,-1.8866 -6.10505,-6.6375 -3.11441,-4.3942 -1.26179,-5.837 6.5201,-5.0779 7.64321,0.7456 24.23214,8.0812 24.23214,10.7154 0,1.46 7.44112,5.2745 10.85619,5.5652 1.8459,0.1571 4.17047,1.1597 5.1657,2.2279 1.367,1.4673 3.23632,1.9649 7.64382,2.0345 10.42998,0.1647 19.64294,-2.048 41.83429,-10.0477 6.05,-2.181 13.925,-4.5766 17.50003,-5.3236 3.575,-0.747 9.65,-2.0727 13.5,-2.946 3.85,-0.8733 9.475,-1.9925 12.5,-2.487 3.025,-0.4946 7.975,-1.5459 11,-2.3362 3.025,-0.7903 7.75,-1.7343 10.5,-2.0977 13.88677,-1.8353 19.84447,-2.6752 28.99997,-4.0882 13.8487,-2.1373 40.2005,-2.1204 47.5,0.031 3.025,0.8914 8.257,2.2428 11.6268,3.0033 3.3697,0.7604 7.9667,2.1188 10.2156,3.0186 2.2488,0.8998 4.6667,1.4271 5.3732,1.1717 0.7064,-0.2554 1.9594,0.105 2.7844,0.8009 2.3951,2.0203 11.0589,4.5899 13.1923,3.9128 1.1067,-0.3513 2.6773,0.014 3.6294,0.8428 5.5849,4.8653 53.0574,5.6955 91.6783,1.6033 17.258,-1.8286 36.1037,-2.9605 50.7961,-3.0508 l 14.7961,-0.091 -0.2961,-5.5807 c -0.2537,-4.7812 -0.6091,-5.6582 -2.4812,-6.1217 -1.2018,-0.2975 -3.2463,-1.4697 -4.5433,-2.6047 -1.2971,-1.1351 -3.169,-2.3748 -4.1599,-2.7551 -0.9909,-0.3802 -2.0363,-1.589 -2.3233,-2.6862 -0.2869,-1.0973 -0.8473,-1.995 -1.2453,-1.995 -0.398,0 -1.2968,-2.5875 -1.9972,-5.75 -0.7005,-3.1625 -1.8888,-7.775 -2.6408,-10.25 -0.8397,-2.7635 -1.5267,-11.2293 -1.7803,-21.9382 -0.4254,-17.9624 -0.2828,-18.9321 4.0022,-27.2161 0.7552,-1.4599 1.373,-3.3378 1.373,-4.1733 0,-0.8354 1.125,-2.8559 2.5,-4.49 1.444,-1.7162 2.5,-4.2312 2.5,-5.9543 0,-1.6408 0.675,-3.5434 1.5,-4.2281 2.2091,-1.8334 1.8564,-4.2096 -1.5868,-10.6902 -3.5044,-6.5959 -6.1306,-15.6844 -6.4466,-22.3098 -0.118,-2.475 -0.9445,-6.4137 -1.8366,-8.7527 -1.2963,-3.3988 -1.4464,-5.6075 -0.7477,-11 0.4809,-3.711 0.7037,-9.4473 0.495,-12.7473 -0.2235,-3.5336 0.1237,-6.9662 0.8444,-8.3505 1.0146,-1.9487 0.9575,-2.547 -0.3341,-3.5 -1.2327,-0.9096 -1.4277,-2.3234 -0.934,-6.7734 0.3432,-3.0931 0.2279,-6.91813 -0.2563,-8.50003 -1.2898,-4.2141 -1.749,-11.72581 -0.7545,-12.34261 0.4731,-0.2934 1.3378,-5.2585 1.9217,-11.0335 0.6917,-6.8418 1.8027,-12.0291 3.1889,-14.8888 1.1701,-2.4138 2.2982,-5.7384 2.5069,-7.388 0.2088,-1.6497 1.0681,-3.7601 1.9097,-4.69 0.8415,-0.9299 1.53,-2.148 1.53,-2.707 0,-0.5589 0.8787,-1.8114 1.9526,-2.7833 1.4654,-1.3262 1.8054,-2.5499 1.3627,-4.905 -0.7147,-3.8021 -2.3201,-5.737 -8.5613,-10.31848 -4.0489,-2.97214 -5.6765,-3.53836 -10.6186,-3.69409 -7.0546,-0.2223 -8.4266,-1.3794 -10.6323,-8.96676 -0.8989,-3.09188 -2.0912,-5.90401 -2.6497,-6.24918 -0.5585,-0.34517 -0.7454,-1.70349 -0.4154,-3.01848 0.3301,-1.315 0.1925,-2.39091 -0.3057,-2.39091 -2.1505,0 -3.2234,-12.87288 -2.667,-32 0.5675,-19.50937 2.1547,-32.03138 4.0347,-31.83099 1.6066,0.17126 3.4693,-4.35246 3.4853,-8.46446 0.01,-2.58724 0.7309,-4.51327 2.2647,-6.05038 2.9922,-2.99874 4.5759,-8.73145 6.3632,-23.03382 1.018,-8.14639 2.2194,-13.33163 3.823,-16.5 1.2862,-2.54119 2.9088,-6.52743 3.6059,-8.85831 0.697,-2.33088 1.9852,-4.89597 2.8626,-5.7002 7.1863,-6.58684 9.0814,-8.02288 12.5953,-9.54413 2.2,-0.95243 6.9531,-2.04782 10.5624,-2.4342 6.3692,-0.68183 6.5967,-0.62718 7.7285,1.85699 0.6414,1.40772 1.6259,2.5595 2.1877,2.5595 0.5618,0 1.0214,0.65264 1.0214,1.45031 0,0.79767 0.7875,1.92139 1.75,2.49716 1.5994,0.95673 1.5092,1.26166 -1.0475,3.54255 -1.5386,1.37263 -4.0136,2.783 -5.5,3.13414 -4.4887,1.0604 -16.2025,10.71541 -16.2025,13.35477 0,0.47719 -1.0612,2.13965 -2.3583,3.69434 -1.297,1.5547 -2.872,4.51423 -3.5,6.57673 -0.6279,2.0625 -1.6199,5.32238 -2.2043,7.24417 -0.5845,1.92179 -0.7707,3.96651 -0.4139,4.54381 0.3568,0.57729 0.1649,1.63258 -0.4264,2.34508 -0.5914,0.7125 -1.0571,3.05528 -1.0351,5.20619 0.022,2.15091 -0.1993,7.60204 -0.4917,12.11362 -0.6001,9.25602 -0.2452,9.84274 5.6941,9.41391 3.3084,-0.23887 4.2834,0.22992 7.2779,3.49911 3.1479,3.43669 3.4733,4.36227 3.6318,10.32953 0.2857,10.75982 0.4093,12.43339 1.122,15.1834 0.3852,1.48653 0.039,4.74548 -0.7966,7.5 -0.8128,2.67915 -1.4827,6.35941 -1.4887,8.17836 -0.013,3.87296 -1.7348,11.93371 -3.0856,14.44282 -0.6972,1.2951 -0.5654,1.75 0.5073,1.75 4.2077,0 2.2913,6.34343 -2.9456,9.75 -1.9024,1.2375 -3.8454,2.25 -4.3179,2.25 -0.9786,0 -4.169,3.31261 -4.169,4.32874 0,0.36919 3.3597,0.67126 7.4661,0.67126 7.892,0 14.5339,2.1719 14.5339,4.7526 0,0.92565 0.6585,1.17317 1.9937,0.7494 1.4453,-0.45873 1.8474,-0.25142 1.4617,0.75367 -0.5337,1.39066 4.7641,6.20198 6.9256,6.28978 0.6155,0.025 1.0213,0.54323 0.9018,1.15162 -0.352,1.79243 6.6093,4.57453 9.833,3.92973 2.0087,-0.4017 2.8842,-0.1778 2.8842,0.7377 0,1.9184 3.9683,3.4204 11.1676,4.227 3.4828,0.3903 7.2324,1.268 8.3324,1.9506 3.2337,2.0067 10.8753,2.6794 29.7218,2.6166 9.747,-0.032 17.9538,0.3163 18.2373,0.7751 1.1601,1.8771 -9.3418,4.8958 -21.4591,6.1683 -20.9677,2.202 -29.5023,1.8363 -48.3401,-2.0714 -4.6771,-0.9702 -14.481,-5.5707 -15.8087,-7.4183 -1.0657,-1.4831 -8.8881,0.061 -10.3972,2.0529 -2.0272,2.6751 -1.8207,3.1922 2.0032,5.0157 1.9014,0.9067 3.2036,2.0589 2.8936,2.5604 -1.0064,1.6284 8.3859,8.7586 11.5373,8.7586 1.083,0 2.575,0.6059 3.3156,1.3465 0.7405,0.7406 3.0227,1.661 5.0714,2.0453 2.0487,0.3844 3.7249,1.1284 3.7249,1.6535 0,0.5251 1.8,0.9547 4,0.9547 2.8314,0 4,0.4245 4,1.453 0,1.5208 -5.6592,3.5317 -9.9666,3.5414 -4.3979,0.01 -18.7549,-5.749 -20.9621,-8.4084 -0.7239,-0.8723 -1.9361,-1.586 -2.6937,-1.586 -1.5708,0 -4.7283,2.9182 -6.2656,5.7907 -1.0935,2.0432 -3.7049,13.8058 -4.7275,21.29361 -0.3316,2.4286 -0.9609,4.8657 -1.3984,5.4157 -0.7463,0.9383 -1.3295,5.3758 -1.0921,8.309 0.058,0.72 0.5249,1.0501 1.0369,0.7337 1.6597,-1.0257 2.0152,1.0378 1.129,6.55363 -0.5868,3.652 -0.4122,8.9083 0.5384,16.2149 1.0251,7.879 1.1138,11.3582 0.3271,12.8281 -0.5937,1.1094 -0.8339,2.6568 -0.5338,3.4388 0.3001,0.7821 0.055,1.4219 -0.5454,1.4219 -0.7308,0 -0.6892,0.4842 0.1259,1.4664 0.7092,0.8545 1.1026,3.6713 0.9429,6.75 -0.1508,2.906 0.2294,7.0836 0.8449,9.2836 0.6155,2.2 1.0858,5.125 1.0452,6.5 -0.085,2.8847 1.2779,6.8718 5.4649,15.9848 1.6512,3.5937 3.4016,9.6434 3.9262,13.5695 0.8201,6.1376 0.6698,7.9067 -1.1248,13.2336 -1.1393,3.382 -2.0714,6.7901 -2.0714,7.5736 0,0.7835 -0.675,1.6835 -1.5,2.0001 -1.8109,0.6949 -2.0105,3.6254 -0.25,3.6702 0.8262,0.021 0.7121,0.4448 -0.3367,1.25 -2.1473,1.6486 -3.9133,5.1287 -3.9133,7.7115 0,1.1686 -0.3978,1.8789 -0.8839,1.5784 -1.2941,-0.7998 -3.4723,5.0543 -2.4624,6.6179 1.0351,1.6028 1.7979,9.5173 1.3791,14.3104 -0.096,1.1 0.1378,4.7 0.5199,8 0.382,3.3 0.7515,7.0819 0.821,8.4041 0.1447,2.7549 1.2947,2.9711 15.8763,2.9858 l 8.75,0.01 0,3.4431 c 0,2.9566 -0.7064,3.9818 -5,7.2561 -5.3073,4.0474 -6.0839,5.3561 -3.25,5.4764 3.0598,0.1299 6.6653,0.9089 9.4833,2.0488 1.5034,0.6082 4.2405,0.823 6.0825,0.4774 3.9457,-0.7402 7.2682,1.9841 6.267,5.1386 -1.4675,4.6236 -21.5374,9.8284 -29.8051,7.7295 -1.988,-0.5047 -3.876,-0.021 -7,1.794 -6.5538,3.8075 -13.8921,5.4343 -30.2777,6.7121 -8.25,0.6434 -23.1,1.9573 -33,2.9198 -17.9968,1.7497 -47.6798,2.0267 -71.5,0.6673 -5.775,-0.3296 -14.4083,-0.7892 -19.1852,-1.0213 -4.7768,-0.2322 -9.9518,-1.0628 -11.5,-1.8458 -1.5481,-0.7831 -5.2276,-2.2126 -8.1766,-3.1767 -2.949,-0.9642 -7.899,-3.1801 -11,-4.9244 -8.5575,-4.8135 -10.4904,-5.3036 -26.1382,-6.6283 -22.9104,-1.9394 -37.099,-1.3539 -53.5,2.2078 -4.95,1.075 -11.475,2.3344 -14.49997,2.7987 -3.025,0.4643 -6.85,1.3745 -8.5,2.0226 -4.7022,1.847 -25.5104,7.0023 -28.3987,7.0358 -1.4307,0.017 -6.6513,1.1756 -11.6013,2.5754 -4.95003,1.3999 -11.25003,2.994 -14.00003,3.5427 -4.35443,0.8686 -11.50812,2.7313 -27,7.0301 -2.2,0.6105 -5.92823,1.7201 -8.28495,2.4658 -4.5299,1.4333 -8.48661,1.7509 -9.47686,0.7607 z M 1263.402,915.44156 c 0,-0.80994 -0.7875,-1.62427 -1.75,-1.80963 -1.2278,-0.23646 -1.75,0.30348 -1.75,1.80963 0,1.50615 0.5222,2.04609 1.75,1.80963 0.9625,-0.18536 1.75,-0.99969 1.75,-1.80963 z m 1.6925,-17.619 c 1.202,-0.74284 0.9773,-10.15805 -0.2607,-10.92313 -0.5875,-0.3631 -0.8046,-1.34706 -0.4824,-2.18658 0.3221,-0.83953 0.8167,-7.43151 1.099,-14.64885 0.2823,-7.21734 0.6897,-14.91817 0.9053,-17.11296 0.2156,-2.19478 -0.059,-4.53372 -0.6099,-5.19764 -0.5988,-0.72161 -0.6492,-1.83711 -0.1252,-2.77345 0.4821,-0.86148 0.6934,-3.13504 0.4696,-5.05236 -0.3609,-3.09114 -0.7373,-3.48603 -3.3224,-3.48603 -2.0627,0 -3.2054,0.65803 -3.9073,2.25 -0.5456,1.2375 -2.0803,4.17816 -3.4105,6.5348 -1.3301,2.35664 -2.4423,5.05664 -2.4713,6 -0.1169,3.79011 -1.37,9.78533 -2.2833,10.92381 -1.5535,1.93645 -2.3302,21.7926 -1.1759,30.05946 0.8116,5.8118 3.3533,7.55453 9.825,6.73661 2.7185,-0.34356 5.306,-0.84922 5.75,-1.12368 z m 82.3858,302.43454 c -2.1569,-0.4706 -4.4483,-1.2927 -5.092,-1.8269 -0.6437,-0.5342 -1.4664,-0.6752 -1.8283,-0.3133 -0.3619,0.3619 -0.658,0.133 -0.658,-0.5086 0,-0.6417 -0.6534,-1.1667 -1.452,-1.1667 -2.1421,0 -7.2991,-8.0449 -7.7004,-12.0128 -0.3113,-3.077 -0.034,-3.5283 2.6524,-4.3186 1.65,-0.4854 4.35,-1.5059 6,-2.2679 1.65,-0.7619 6.2011,-1.8284 10.1135,-2.37 6.7602,-0.9358 10.0382,-2.0393 20.3865,-6.8624 7.1099,-3.3138 24.1467,-10.2401 28.0969,-11.4228 1.9783,-0.5923 4.4533,-0.7374 5.5,-0.3224 1.6628,0.6592 1.1567,1.4377 -4.0088,6.1657 -3.2515,2.9762 -6.2572,5.4112 -6.6793,5.4112 -0.422,0 -3.4773,1.8 -6.7895,4 -3.3122,2.2 -6.261,4 -6.5531,4 -0.292,0 -3.4718,1.8 -7.0662,4 -3.5944,2.2 -7.4569,4 -8.5834,4 -1.1264,0 -3.0121,0.5159 -4.1904,1.1465 -1.1782,0.6306 -3.0611,1.2482 -4.1842,1.3724 -3.4165,0.3779 -3.5421,0.4393 -3.5399,1.7311 0,0.9328 3.2939,1.2642 12.9726,1.3059 7.1337,0.031 13.2297,0.3151 13.5465,0.632 0.3169,0.3168 0.2923,1.7072 -0.055,3.0896 -0.8584,3.4201 -7.169,5.7225 -15.6848,5.7225 -3.6583,0 -7.6933,0.376 -8.9666,0.8355 -1.2733,0.4595 -4.0799,0.4505 -6.2368,-0.02 z m -517.7658,-9.4986 c 0.72187,-0.2889 1.58438,-0.2534 1.91667,0.079 0.33229,0.3323 -0.25834,0.5687 -1.3125,0.5253 -1.16495,-0.048 -1.4019,-0.285 -0.60417,-0.6042 z m 481.6464,-16.3834 c -0.9204,-1.4892 0.1467,-2.2988 2.0614,-1.5641 0.8835,0.3391 1.3264,1.0697 0.9841,1.6235 -0.8106,1.3116 -2.2151,1.2841 -3.0455,-0.059 z m 5.5411,-3.3745 c 0,-0.8574 0.45,-1.559 1,-1.559 0.55,0 1,0.4234 1,0.941 0,0.5175 -0.45,1.2191 -1,1.559 -0.55,0.3399 -1,-0.083 -1,-0.941 z m 19.75,-7.2544 c -2.0625,-1.4164 -3.8126,-3.3018 -3.8892,-4.1899 -0.076,-0.8881 -0.2476,-3.4147 -0.3801,-5.6147 -0.1325,-2.2 -0.7787,-6.025 -1.436,-8.5 -1.925,-7.2482 -3.0149,-20.1872 -1.8792,-22.3093 0.5525,-1.0324 0.7194,-3.013 0.371,-4.4014 -0.4211,-1.6777 -0.072,-3.1449 1.0402,-4.374 0.9426,-1.0416 1.4443,-2.7271 1.1484,-3.8584 -0.2889,-1.1049 -0.079,-3.7072 0.4669,-5.7829 0.5458,-2.0757 1.1336,-5.574 1.3063,-7.774 0.1728,-2.2 0.8096,-6.925 1.4153,-10.5 1.3585,-8.0183 1.3137,-6.6544 0.59,-17.9777 -0.3644,-5.7017 -1.1403,-10.0841 -1.9476,-11 -0.7381,-0.8372 -1.9271,-4.1787 -2.6424,-7.4254 -0.7152,-3.2467 -2.3384,-7.1367 -3.607,-8.6444 -1.2686,-1.5077 -2.3066,-3.2388 -2.3066,-3.8469 0,-0.6081 -0.473,-1.1056 -1.051,-1.1056 -0.5781,0 -1.7341,-1.4625 -2.569,-3.25 -0.8349,-1.7875 -2.1488,-4.4089 -2.9198,-5.8252 -0.771,-1.4164 -1.4674,-4.1164 -1.5475,-6 -0.08,-1.8837 -0.6044,-4.6782 -1.1651,-6.2101 -0.7731,-2.1122 -0.6379,-3.6831 0.5595,-6.5 3.0325,-7.1345 4.954,-15.41503 5.5914,-24.09643 0.076,-1.033 1.1414,-1.2422 4.2226,-0.8289 2.2666,0.304 4.5846,1.0163 5.1511,1.5828 2.7283,2.7283 2.8637,20.80543 0.1958,26.12783 -1.1433,2.2807 -1.9194,9.3705 -1.597,14.5895 0.074,1.1921 1.2268,2.5897 2.6854,3.2542 1.406,0.6407 2.3185,1.5497 2.0278,2.0201 -1.0814,1.7497 1.8896,6.1205 4.1658,6.1284 1.5937,0.01 2.25,0.6014 2.25,2.043 0,1.1193 0.7062,3.113 1.5694,4.4303 1.5204,2.3205 3.1251,9.8435 5.8785,27.5593 1.4754,9.4936 1.2342,28.8322 -0.3978,31.8816 -0.5805,1.0847 -0.6806,2.2039 -0.2224,2.4871 1.7124,1.0583 -0.3757,14.4097 -3.2059,20.4986 -1.3959,3.0032 -1.1648,10.2248 0.4221,13.19 0.6617,1.2364 1.1631,4.2409 1.1142,6.6766 -0.07,3.5012 0.218,4.3109 1.3765,3.8664 1.0373,-0.3981 1.4654,0.1415 1.4654,1.8473 0,1.3252 -0.4408,2.682 -0.9795,3.0149 -1.4567,0.9003 1.121,4.5127 3.22,4.5127 3.2144,0 1.8224,1.8632 -3.3227,4.4474 -6.1622,3.0951 -6.4583,3.0913 -11.1678,-0.1428 z m 11.25,-11.3046 c 0,-0.55 -0.4766,-1 -1.059,-1 -0.5825,0 -0.7809,0.45 -0.441,1 0.3399,0.55 0.8165,1 1.059,1 0.2426,0 0.441,-0.45 0.441,-1 z m 391.8503,11.4217 c -1.868,-1.8679 -14.5612,-4.7885 -27.8503,-6.4079 -14.9622,-1.8233 -17.9638,-2.476 -22.5,-4.8928 -1.65,-0.8791 -3.45,-1.6446 -4,-1.7011 -3.3997,-0.3494 -24.0867,-6.1772 -26.7364,-7.532 -0.9551,-0.4884 -2.3321,-0.8879 -3.06,-0.8879 -0.728,0 -4.5207,-1.575 -8.4282,-3.5 -3.9074,-1.925 -7.8655,-3.5 -8.7956,-3.5 -0.9301,0 -4.2311,-0.617 -7.3355,-1.371 -3.1043,-0.7541 -8.3443,-1.9047 -11.6443,-2.5568 -3.3,-0.6522 -8.925,-1.8689 -12.5,-2.7037 -3.575,-0.8349 -9.2,-2.1435 -12.5,-2.9081 -11.949,-2.7685 -27.6421,-1.1681 -46.5,4.7421 -19.6136,6.147 -20.8807,6.386 -38.5,7.2612 -6.05,0.3005 -13.7,0.9915 -17,1.5355 -6.8085,1.1225 -13.5826,1.2901 -15.9182,0.3938 -2.657,-1.0196 -1.8431,-3.3919 1.1682,-3.4048 1.5125,-0.01 9.725,-2.0816 18.25,-4.6113 8.525,-2.5298 18.2,-5.3783 21.5,-6.3301 3.3,-0.9519 6.675,-2.0076 7.5,-2.3462 0.825,-0.3386 4.65,-1.5955 8.5,-2.793 3.85,-1.1976 7.45,-2.5017 8,-2.8981 0.55,-0.3963 1.9,-0.9687 3,-1.2718 1.1,-0.3032 6.5,-1.9659 12,-3.6951 5.5,-1.7291 12.25,-3.5339 15,-4.0106 2.75,-0.4767 8.6899,-1.5649 13.1999,-2.4183 4.7907,-0.9065 15.6749,-1.6987 26.1794,-1.9054 15.8817,-0.3126 18.1476,-0.1578 19.419,1.3271 1.1957,1.3965 2.756,1.5966 9.2166,1.1819 5.4722,-0.3511 7.5775,-0.1758 7.1032,0.5916 -0.9792,1.5845 2.6403,3.1911 7.189,3.1911 2.1663,0 6.0583,0.9376 8.6489,2.0836 2.5906,1.1459 4.9769,1.8168 5.3029,1.4908 0.326,-0.326 1.5261,0.2842 2.6669,1.3559 1.1408,1.0717 2.431,1.9293 2.8671,1.9056 0.4361,-0.024 2.0933,0.4957 3.6827,1.154 1.9984,0.8277 2.7273,1.7081 2.3628,2.8536 -0.4074,1.2803 -0.3081,1.3503 0.4371,0.3081 1.2348,-1.7269 4.7245,-1.0901 4.7245,0.8621 0,1.7353 7.1862,2.7001 8.7161,1.1702 1.3077,-1.3077 4.7839,-0.2666 4.7839,1.4327 0,0.8081 -1.1437,1.4424 -2.75,1.5253 -2.0775,0.1072 -1.7719,0.3009 1.25,0.7923 2.2,0.3577 5.0804,0.2791 6.4008,-0.1745 1.7803,-0.6117 2.9435,-0.3364 4.5,1.0649 2.5205,2.2691 11.6152,4.109 16.9406,3.4271 2.1194,-0.2714 4.8756,0.062 6.1486,0.7429 1.305,0.6984 4.1974,1.0322 6.6586,0.7683 4.0465,-0.4338 13.9517,0.5851 18.1928,1.8714 1.2204,0.3701 1.6735,1.2005 1.3436,2.4621 -0.2738,1.047 -0.2024,1.9033 0.1586,1.9029 0.361,-4e-4 0.4314,3.5678 0.1564,7.9293 -0.5718,9.0691 -2.2673,12.1872 -8.594,15.8049 -4.648,2.6579 -6.4418,2.8022 -8.5557,0.6882 z m 36.2838,-9.1536 c -1.7237,-0.8348 -3.1341,-2.2717 -3.1341,-3.193 0,-0.9213 -0.4497,-2.1248 -0.9993,-2.6744 -1.5006,-1.5006 -1.4924,-8.6134 0.013,-11.4265 0.7283,-1.3608 1.2481,-2.5867 1.1552,-2.7242 -0.8361,-1.2369 0.2217,-5.2922 1.831,-7.0196 1.1,-1.1807 2,-3.2355 2,-4.5661 0,-1.3307 0.6955,-2.9966 1.5455,-3.7021 0.85,-0.7054 1.3044,-1.911 1.0096,-2.6791 -0.7264,-1.8931 4.1867,-6.2831 7.0319,-6.2831 1.2622,0 2.5366,-0.3909 2.8318,-0.8686 0.2953,-0.4778 2.3633,-1.1608 4.5956,-1.5177 2.2323,-0.357 5.7232,-1.5411 7.7574,-2.6314 3.9146,-2.0981 9.7027,-2.6416 10.7135,-1.006 1.0439,1.6889 -1.8716,5.9 -7.0206,10.1405 -2.7306,2.2488 -5.4147,4.8909 -5.9647,5.8713 -0.55,0.9804 -3.601,4.6062 -6.78,8.0572 -3.179,3.4511 -5.628,6.7308 -5.4421,7.2884 0.4933,1.4798 16.207,0.6791 38.3351,-1.9535 4.9112,-0.5843 5.1393,-0.5034 5.7806,2.0517 0.8763,3.4917 0.5743,3.8602 -5.6223,6.8597 -11.7336,5.6797 -16.6763,7.6424 -25.2713,10.0351 -11.7259,3.2644 -20.2345,3.9423 -24.3659,1.9414 z m -21.1355,-34.7723 c -1.0032,-3.0397 -0.8832,-3.9465 0.9055,-6.8407 1.1342,-1.835 2.9712,-7.949 4.0824,-13.5866 1.7232,-8.7427 2.0425,-13.6612 1.9018,-29.2988 -0.01,-0.9517 -0.4369,-1.9907 -0.9519,-2.309 -0.515,-0.3183 -0.9364,-2.7472 -0.9364,-5.3976 0,-2.6504 -0.731,-6.5613 -1.6244,-8.691 -2.3345,-5.5646 -0.9346,-25.1839 2.2862,-32.04 0.8185,-1.7423 1.3865,-4.4423 1.2624,-6 -0.3984,-4.9969 0.036,-7.1495 1.7987,-8.9122 2.5316,-2.5315 2.586,-15.98403 0.078,-19.30483 -0.9906,-1.3116 -1.8011,-3.5085 -1.8011,-4.88191 0,-1.3734 -0.847,-3.9002 -1.8822,-5.6152 -1.0352,-1.7149 -2.1877,-5.2555 -2.5612,-7.868 -0.3736,-2.6125 -1.1305,-4.75 -1.6822,-4.75 -0.8675,0 -0.6287,-11.4051 0.5969,-28.5 0.3393,-4.7329 2.5013,-15.73141 3.6827,-18.73435 0.8315,-2.11361 0.72,-3.62324 -0.491,-6.64979 -0.9164,-2.2904 -1.4279,-5.92842 -1.2325,-8.76564 0.2131,-3.09372 -0.2075,-5.71489 -1.1614,-7.23782 -0.9666,-1.5431 -1.3123,-3.75375 -0.9775,-6.25 0.5177,-3.85974 0.5156,-3.8624 -3.058,-3.8624 -1.9669,0 -4.2866,0.62024 -5.1549,1.37832 -0.8683,0.75807 -5.5942,3.4977 -10.502,6.08807 -9.2886,4.90257 -9.3219,4.90721 -18.4949,2.57247 -8.916,-2.26929 -12.6626,-6.65208 -8.5818,-10.03886 0.825,-0.68469 1.5,-1.6166 1.5,-2.07092 0,-0.45432 1.0125,-1.89565 2.25,-3.20295 3.1305,-3.30706 10.5072,-5.14756 17.3894,-4.33869 3.0804,0.36203 6.1091,0.2545 6.7306,-0.23896 0.6215,-0.49347 2.5925,-1.17875 4.38,-1.52285 8.0554,-1.55069 9.2541,-1.92563 10.3403,-3.23441 0.635,-0.76517 1.9342,-1.39122 2.8871,-1.39122 1.4204,0 1.8369,-1.24529 2.3119,-6.9112 0.3312,-3.95001 1.4613,-8.63978 2.6376,-10.94558 1.4663,-2.87405 1.7291,-4.23778 0.914,-4.74158 -0.6294,-0.38895 -1.6385,-0.055 -2.2426,0.74205 -1.7768,2.3445 -23.0906,8.00636 -29.5081,7.83862 -13.6004,-0.35548 -12.8191,-0.63082 -20.0081,7.05053 -5.2318,5.59011 -7.3424,7.15406 -10.2884,7.62375 -2.0385,0.325 -4.4112,0.32044 -5.2727,-0.0101 -1.6334,-0.62681 -1.643,-0.58708 1.8098,-7.47749 0.9181,-1.83207 1.6692,-4.12572 1.6692,-5.09699 0,-0.97127 0.9,-2.80366 2,-4.07197 2.7872,-3.21362 2.5391,-3.74401 -1.75,-3.74099 -7.0973,0.005 -20.0606,-2.01802 -23.3061,-3.63709 -1.7881,-0.89206 -4.3445,-1.62192 -5.6809,-1.62192 -3.6739,0 -2.1781,-2.41819 1.6137,-2.60889 1.7753,-0.0893 3.3311,-0.32631 3.4573,-0.52672 0.1261,-0.20042 2.3874,-2.95189 5.025,-6.11439 4.0831,-4.89564 5.292,-5.75 8.1365,-5.75 3.9204,0 6.6853,0.8985 6.0296,1.95942 -0.2549,0.41243 0.6477,1.79371 2.0057,3.06953 1.3581,1.27582 2.4692,2.81921 2.4692,3.42976 0,1.33814 4.4805,4.02708 8.1735,4.90524 1.9749,0.46962 3.412,0.0202 5.5,-1.71984 2.8616,-2.38483 6.3571,-3.17249 26.9134,-6.06462 6.4991,-0.91438 10.0589,-1.96209 12.5,-3.67898 4.429,-3.11503 4.9457,-3.92231 4.2598,-6.65519 -0.3135,-1.24921 -0.1422,-2.82795 0.3807,-3.50831 1.0472,-1.36263 1.0113,-6.33167 -0.053,-7.39644 -0.3706,-0.37065 -0.6739,-1.41405 -0.6739,-2.31868 0,-0.90462 -0.9,-2.6108 -2,-3.79152 -1.1,-1.18071 -2,-3.26029 -2,-4.6213 0,-1.36101 -1.0125,-4.47193 -2.25,-6.91315 -2.9784,-5.8755 -3.265,-22.36434 -0.443,-25.48265 0.9577,-1.05822 1.4756,-2.61627 1.1509,-3.46233 -0.8328,-2.17028 4.4227,-9.36669 8.1833,-11.20555 1.7277,-0.84478 3.401,-2.21309 3.7186,-3.04068 0.3176,-0.82759 1.6041,-1.50756 2.8588,-1.51103 2.1338,-0.006 2.9474,-0.90996 7.3707,-8.18924 0.5991,-0.98592 1.376,-1.50585 1.7264,-1.15539 0.3505,0.35047 0.921,-0.1022 1.2678,-1.00592 0.3467,-0.90372 1.2573,-1.64313 2.0235,-1.64313 0.7661,0 1.393,-0.40122 1.393,-0.89159 0,-0.49038 1.2375,-1.19585 2.75,-1.56772 4.2039,-1.0336 7.25,-3.3712 7.25,-5.56374 0,-1.08732 -1.0125,-2.98341 -2.25,-4.21353 -2.758,-2.74154 -4.3544,-5.68562 -5.22,-9.62696 -0.3622,-1.64905 -1.3397,-3.56359 -2.1723,-4.25455 -0.8325,-0.69095 -2.6422,-3.48326 -4.0215,-6.20512 -1.9148,-3.77872 -2.3521,-5.77875 -1.8493,-8.45886 0.4549,-2.42453 0.2495,-3.76467 -0.6642,-4.33346 -1.0603,-0.66007 -1.0788,-1.2171 -0.093,-2.8076 0.7895,-1.27402 0.8731,-2.20442 0.2337,-2.59961 -0.5477,-0.3385 -0.7436,-1.0236 -0.4353,-1.52245 1.1699,-1.89291 1.2693,-11.87703 0.1266,-12.71275 -0.635,-0.4644 -6.1045,-0.58201 -12.1545,-0.26135 -17.2683,0.91525 -29.345,-0.10378 -33.7905,-2.85122 -2.1936,-1.35572 -3.7095,-3.0766 -3.7095,-4.21105 0,-1.05514 -0.3954,-1.91844 -0.8787,-1.91844 -3.3767,0 -4.0347,-15.22951 -0.7977,-18.46642 0.922,-0.92204 1.6764,-2.09429 1.6764,-2.60501 0,-0.51071 0.6199,-0.92857 1.3776,-0.92857 0.7576,0 1.9049,-0.63546 2.5495,-1.41214 1.9241,-2.31847 9.8653,-3.65375 22.0729,-3.71151 16.5641,-0.0784 16.7469,-0.059 18.711,1.98804 0.984,1.02542 2.8141,2.39799 4.067,3.05017 1.2529,0.65218 2.0347,1.57949 1.7373,2.06068 -0.2974,0.48119 -0.058,1.93386 0.5315,3.22817 0.7881,1.7296 0.7403,3.14085 -0.1802,5.32493 -0.6888,1.63442 -1.2781,3.38161 -1.3095,3.88266 -0.07,1.11953 13.6118,0.82236 22.4429,-0.48746 30.0678,-4.45963 51.2576,-5.62737 53.0509,-2.92354 0.7698,1.16062 0.05,2.2919 -3.1826,5 -10.1654,8.51682 -10.5003,8.908 -8.7805,10.25572 0.8732,0.68436 1.3883,1.83651 1.1446,2.56035 -0.245,0.72776 0.498,1.56218 1.6622,1.86663 7.1527,1.87047 -5.5394,7.3173 -17.0507,7.3173 -2.1023,0 -6.1898,-0.89977 -9.0832,-1.9995 -2.8934,-1.09972 -6.2387,-1.99972 -7.434,-2 -2.809,-6.5e-4 -8.9125,-5.0204 -7.3092,-6.01134 2.1132,-1.30599 0.6536,-5.27579 -2.2998,-6.25492 -2.2948,-0.76081 -3.3645,-0.47831 -6.1057,1.61254 -2.9743,2.26861 -3.3826,3.18721 -3.8864,8.74291 -0.7006,7.72615 0.466,11.35498 3.4033,10.58684 1.296,-0.3389 2.8846,0.18978 4.1708,1.38803 1.1426,1.06449 2.6676,1.93544 3.3889,1.93544 2.0826,0 1.5454,2.61572 -1.7287,8.41701 -2.637,4.67249 -2.9835,6.14047 -2.6133,11.07152 0.4477,5.96387 1.01,7.00385 4.8192,8.91294 2.1523,1.07867 2.3342,1.79054 2.3342,9.13419 0,4.38038 0.3479,8.5007 0.7731,9.15625 0.4611,0.71082 -0.1443,2.03338 -1.5,3.27672 -10.4187,9.55564 -15.7731,15.10524 -15.7731,16.34805 0,0.80814 -0.675,1.72836 -1.5,2.04495 -0.825,0.31658 -1.5,1.45148 -1.5,2.522 0,2.03767 -8.0225,9.76895 -11.5421,11.12308 -1.1231,0.43212 -3.3081,2.61262 -4.8555,4.84556 -2.5582,3.69138 -2.7653,4.6312 -2.2826,10.35381 0.6103,7.23456 1.5326,10.79392 2.7968,10.79392 0.4859,0 0.9189,0.7875 0.9623,1.75 0.048,1.05467 0.2801,1.25112 0.5852,0.49442 0.3488,-0.86488 1.0918,-0.55371 2.3878,1 1.0349,1.24057 1.8965,1.84834 1.9148,1.35059 0.067,-1.80707 4.0333,2.76855 4.0333,4.65225 0,1.0655 -0.9,3.08145 -2,4.47987 -2.3859,3.03317 -2.531,4.27287 -0.5,4.27287 0.825,0 1.5,0.65766 1.5,1.46146 0,1.64354 6.9332,3.88515 9.2577,2.99316 1.9486,-0.74778 6.7423,4.9849 6.7423,8.06309 0,1.30034 0.45,2.64237 1,2.98229 1.2409,0.76693 1.3287,4.5 0.1058,4.5 -0.4918,0 -0.8999,1.0125 -0.9068,2.25 -0.047,8.41308 -1.3462,11.00312 -9.3478,18.63617 -4.3062,4.1079 -7.6559,7.64247 -7.4438,7.8546 0.2122,0.21213 -0.2557,3.13517 -1.0396,6.49565 -1.6263,6.97116 -1.0666,7.91352 4.1928,7.06003 2.5942,-0.42098 3.3544,-0.13952 3.8512,1.42581 0.8889,2.80053 9.163,6.24677 14.8205,6.17288 4.3682,-0.0571 8.6528,0.51792 13.0177,1.7469 3.6319,1.02261 1.5153,4.50944 -9.2974,15.31643 -7.8723,7.86815 -11.7314,11.04153 -13.4274,11.04153 -2.9719,0 -5.7495,3.44013 -7.3731,9.13177 -0.6853,2.40253 -1.8727,6.36019 -2.6387,8.79489 -1.1975,3.8064 -1.1918,4.9072 0.04,7.8562 1.644,3.9346 0.9208,6.216 -1.118,3.5269 -1.2781,-1.6857 -1.3744,-1.6349 -1.404,0.7402 -0.017,1.4025 0.4991,3.0809 1.148,3.7298 0.9064,0.9064 0.9016,1.7059 -0.021,3.45 -1.2818,2.4239 -1.2968,7.5916 -0.027,9.3133 0.4232,0.5738 0.9404,2.7101 1.1494,4.7475 0.209,2.0373 0.6812,4.0054 1.0493,4.3735 0.368,0.3681 0.6692,1.7209 0.6692,3.0062 0,1.2853 0.9,4.0162 2,6.0685 1.1,2.0524 2,4.4882 2,5.4131 0,0.92481 0.5336,1.85931 1.1857,2.07671 0.6522,0.2174 1.266,2.3924 1.3642,4.8333 0.2232,5.553 1.4557,9.5471 2.4497,7.9388 0.5117,-0.828 0.8959,-0.7154 1.3187,0.3865 0.3282,0.8552 0.015,2.1365 -0.6957,2.84733 -0.7108,0.7108 -1.3157,2.8614 -1.3443,4.779 -0.068,4.5968 -1.3061,9.3116 -2.6773,10.199 -0.6056,0.3919 -1.1576,1.5169 -1.2267,2.5 -0.2752,3.9111 -1.2105,8.113 -2.2302,10.0182 -0.5905,1.1035 -0.8421,2.238 -0.559,2.5211 0.2832,0.2831 -0.3986,3.226 -1.5149,6.5398 -1.8614,5.5256 -1.9115,6.4178 -0.604,10.7622 0.7841,2.6054 1.1689,6.0205 0.8552,7.5892 -0.3137,1.5686 -0.138,3.4157 0.3905,4.1045 0.5285,0.6889 1.057,3.2365 1.1744,5.6615 0.1174,2.4249 0.6389,5.2037 1.1588,6.1752 0.5199,0.9715 1.1204,3.4874 1.3346,5.591 0.2141,2.1037 0.7094,4.7248 1.1007,5.8248 1.3691,3.8487 1.4251,4.4404 0.4759,5.027 -0.526,0.3251 -0.9605,2.927 -0.9657,5.782 -0.011,5.7957 -3.9278,13.9233 -8.4101,17.4491 -1.3732,1.0801 -3.0039,3.077 -3.6238,4.4376 -0.6199,1.3606 -2.4388,3.2486 -4.0419,4.1956 -1.6031,0.947 -2.9148,2.1463 -2.9148,2.6652 0,0.5189 -1.0901,0.9435 -2.4224,0.9435 -1.8824,0 -2.6803,-0.7812 -3.579,-3.5042 z m 20.0014,-289.62795 c 0,-0.41242 -0.45,-1.02797 -1,-1.36789 -0.55,-0.33992 -1,-1.49148 -1,-2.55902 0,-1.06754 -0.45,-1.94098 -1,-1.94098 -0.55,0 -1,-0.70156 -1,-1.55902 0,-0.85746 -0.4793,-1.26278 -1.0651,-0.90072 -0.6993,0.43215 -0.4868,1.29741 0.6185,2.51872 1.1023,1.21802 1.4704,2.71016 1.066,4.32126 -0.3397,1.35346 -0.3206,3.23473 0.042,4.1806 0.6155,1.60388 0.7502,1.59635 1.9991,-0.11167 0.7366,-1.00729 1.3392,-2.16886 1.3392,-2.58128 z m 44.6851,238.75405 c -0.2908,-0.758 0,-1.9393 0.643,-2.625 0.8977,-0.9552 0.8794,-1.3541 -0.078,-1.7052 -0.8564,-0.314 -1.25,-2.9555 -1.25,-8.3886 0,-4.6018 0.5246,-8.7768 1.25,-9.9472 1.0191,-1.6444 0.9922,-2.1774 -0.1457,-2.8855 -2.2127,-1.377 -0.4904,-4.0686 2.6143,-4.0857 2.1632,-0.012 2.448,-0.2308 1.2814,-0.9847 -1.2943,-0.8364 -1.2692,-0.9715 0.1826,-0.9847 0.9254,-0.01 1.9662,0.9972 2.3129,2.2347 1.0645,3.8006 2.7645,6.7074 3.6151,6.1816 0.4451,-0.275 0.3283,0.8796 -0.2595,2.5658 -0.5879,1.6862 -0.8728,4.4016 -0.6331,6.0342 0.2396,1.6326 0.094,2.9684 -0.323,2.9684 -0.4172,0 -0.6262,1.2375 -0.4643,2.75 0.1921,1.7956 -0.3536,3.2045 -1.5723,4.0596 -1.3265,0.9306 -1.6894,2.0157 -1.2541,3.75 0.5475,2.1812 0.2937,2.4404 -2.3889,2.4404 -1.6508,0 -3.2394,-0.6202 -3.5303,-1.3781 z m -526.6851,-15.5629 c 0,-4.282 1.4928,-6.2324 2.4535,-3.2056 0.5774,1.8192 -0.8604,7.1466 -1.9287,7.1466 -0.2887,0 -0.5248,-1.7734 -0.5248,-3.941 z m 7.0354,-0.5865 c 0.02,-1.0849 0.6676,-3.0975 1.4402,-4.4725 l 1.4047,-2.5 -0.1262,2.5 c -0.069,1.375 -0.7174,3.3876 -1.4401,4.4725 -1.3079,1.9633 -1.3138,1.9633 -1.2786,0 z m 1.0435,-9.0558 c 0.048,-1.165 0.285,-1.4019 0.6042,-0.6042 0.2889,0.7219 0.2534,1.5844 -0.079,1.9167 -0.3323,0.3323 -0.5687,-0.2584 -0.5253,-1.3125 z m -7.0789,-3.4167 c -0.7691,-1.4371 -0.7605,-2 0.031,-2 1.7388,0 4.9694,1.9732 4.9694,3.0352 0,1.7923 -3.9212,0.9805 -5,-1.0352 z m 535.0703,-1.25 c 0.059,-2.7235 0.2095,-2.926 0.9297,-1.25 1.1872,2.7627 1.1872,4.5 0,4.5 -0.55,0 -0.9684,-1.4625 -0.9297,-3.25 z m -9.7862,-4 c 0.3002,-1.7875 0.7353,-3.925 0.9669,-4.75 0.2317,-0.825 0.1851,-1.05 -0.1035,-0.5 -0.706,1.3458 -3.0794,-10.5138 -2.4384,-12.1844 0.2777,-0.7236 1.1317,-1.3156 1.8979,-1.3156 2.1399,0 1.6518,-1.7831 -0.6917,-2.5269 -1.7189,-0.5455 -1.9476,-1.1278 -1.3033,-3.3174 0.4299,-1.4606 0.8669,-4.2307 0.9713,-6.1557 0.1044,-1.925 0.4632,-4.62503 0.7973,-6.00003 0.3341,-1.375 1.0241,-6.775 1.5334,-12 0.7727,-7.92851 0.6739,-9.89251 -0.5974,-11.87261 -1.1663,-1.8164 -1.2701,-2.8713 -0.443,-4.5 0.5943,-1.1701 1.0199,-2.8024 0.9459,-3.6274 -0.5013,-5.588 0.3024,-11 1.6334,-11 2.838,0 6.6314,2.3379 6.0886,3.7524 -0.2947,0.7679 0.1705,2.1025 1.0337,2.9657 0.9473,0.9472 1.3464,2.4581 1.0068,3.8112 -0.3398,1.3538 0.024,2.7286 0.918,3.4707 0.9344,0.7755 1.2597,2.1091 0.8819,3.6147 -0.3294,1.3122 0.067,4.0732 0.8806,6.1356 0.8902,2.2562 1.1694,4.54631 0.701,5.74971 -0.4282,1.1 -0.5365,4.5345 -0.2409,7.6322 0.5108,5.3507 -1.1446,13.59083 -3.9107,19.46663 -0.5434,1.1544 -1.0085,4.3044 -1.0334,7 -0.025,2.6957 -0.4682,5.4369 -0.9849,6.0916 -0.5168,0.6547 -0.8549,2.0047 -0.7514,3 0.3937,3.7869 -0.1195,5.0238 -2.5422,6.1276 -1.375,0.6265 -2.5,1.8238 -2.5,2.6606 0,0.8368 -0.7339,1.5214 -1.6308,1.5214 -1.2853,0 -1.5152,-0.6888 -1.0851,-3.25 z m -524.2841,-21.191 c 0,-2.7081 -1.5626,-4.2795 -2.3022,-2.3152 -0.2602,0.6909 -0.359,-0.461 -0.2195,-2.5597 0.3013,-4.5332 1.4887,-5.9721 4.5542,-5.5188 3.4388,0.5085 4.8845,3.4437 2.5404,5.1577 -1.4434,1.0555 -1.7359,2.1121 -1.2529,4.5269 0.5365,2.6828 0.337,3.1501 -1.345,3.1501 -1.4273,0 -1.975,-0.677 -1.975,-2.441 z m 82.055,-8.4252 c -0.519,-0.9274 -0.1244,-2.7299 1.0588,-4.8365 1.0374,-1.84703 1.8862,-4.01943 1.8862,-4.82773 0,-1.7225 0.9316,-1.8263 4.4349,-0.4944 2.59,0.9848 3.5318,4.3093 1.5651,5.52483 -0.55,0.3399 -1,1.6672 -1,2.9496 0,1.9275 -0.6168,2.4036 -3.5588,2.7471 -2.4386,0.2846 -3.8193,-0.05 -4.3862,-1.0629 z m 7.389,-81.61069 c -2.0809,-4.38516 -1.5027,-5.15607 2.5368,-3.38239 2.432,1.06786 3.0338,1.89333 2.8074,3.85069 -0.455,3.93325 -3.3771,3.67725 -5.3442,-0.4683 z m -3.8728,-6.77315 c -0.2014,-0.6875 -1.0892,-5.16592 -1.9731,-9.95206 -1.4357,-7.77473 -1.4482,-9.16966 -0.1171,-13.09014 0.8194,-2.41345 1.3228,-6.35733 1.1187,-8.76419 -0.4047,-4.77343 0.1429,-7.22073 1.4367,-6.42114 0.4547,0.28105 1.4518,-0.38135 2.2157,-1.472 1.1164,-1.59391 2.1109,-1.86583 5.0684,-1.38588 2.9736,0.48255 3.6795,1.02923 3.6795,2.84962 0,1.41152 0.7467,2.4478 2,2.77554 1.1,0.28766 2,1.05727 2,1.71025 0,0.65298 -0.9,1.42259 -2,1.71025 -1.1,0.28766 -2.0574,1.03303 -2.1276,1.65638 -0.07,0.62335 -0.3128,2.25837 -0.5391,3.63337 -0.2263,1.375 -0.414,4.27826 -0.4173,6.45169 0,2.17343 -0.3736,4.42343 -0.8231,5 -1.1572,1.48454 -2.3458,6.38163 -2.6541,10.93503 -0.1448,2.1377 -0.8652,4.2683 -1.601,4.73469 -1.9837,1.25738 -4.8488,1.05533 -5.2666,-0.37141 z m -32.0522,-20.03762 c -2.1896,-1.2401 -4.4897,-3.27496 -5.1114,-4.52192 -0.6216,-1.24696 -1.9802,-2.89464 -3.0189,-3.66151 -1.5137,-1.11744 -1.6405,-1.64597 -0.6387,-2.66163 1.8727,-1.89865 1.5137,-2.87216 -0.9607,-2.60553 -1.9142,0.20626 -2.3032,-0.38262 -2.8997,-4.39011 -0.379,-2.54558 -1.1527,-5.49483 -1.7195,-6.55389 -0.6084,-1.13683 -0.673,-2.50416 -0.1575,-3.33813 0.5132,-0.83038 0.4694,-1.89891 -0.1063,-2.59254 -0.9913,-1.19448 -0.8011,-12.06738 0.2432,-13.89477 0.7805,-1.36604 0.2848,-6.57063 -1.0118,-10.62303 -0.593,-1.85313 -1.3342,-5.0423 -1.6472,-7.08704 -0.4377,-2.85976 -2.0748,-5.23092 -7.0938,-10.2747 -5.3031,-5.32928 -6.466,-7.06725 -6.2107,-9.28228 0.2541,-2.20565 0.8214,-2.7253 2.9751,-2.7253 1.4637,0 3.0012,-0.3375 3.4167,-0.75 1.3346,-1.32486 2.4222,-0.80352 2.4222,1.16111 0,1.0511 1.35,3.04705 3,4.43544 1.65,1.38838 3,2.99301 3,3.56584 0,0.57283 1.2375,1.83579 2.75,2.80659 1.5125,0.97079 3.498,2.44367 4.4123,3.27305 1.7951,1.62841 4.5734,8.26629 4.8167,11.50797 1.4378,19.15709 1.4791,21.06476 0.6607,30.47107 -0.4054,4.65909 -1.2245,8.77231 -1.8202,9.14049 -2.0037,1.23832 0.1066,7.84744 3.4881,10.9247 1.7558,1.59781 3.7549,2.9183 4.4424,2.93443 0.6875,0.0161 1.25,0.47931 1.25,1.02931 0,0.55 0.6891,1 1.5314,1 2.0893,0 3.089,2.99356 1.3643,4.08561 -2.0441,1.29435 -2.9716,1.12171 -7.3767,-1.37323 z m 526.981,-5.71238 c -0.3399,-0.55 0.083,-1 0.941,-1 0.8574,0 1.559,0.45 1.559,1 0,0.55 -0.4234,1 -0.941,1 -0.5175,0 -1.2191,-0.45 -1.559,-1 z m -3.884,-9 c -0.3518,-2.2 -0.9745,-4 -1.3837,-4 -0.4092,0 -1.365,-1.40278 -2.1239,-3.11729 -0.7589,-1.7145 -3.2491,-4.977 -5.5336,-7.25 -2.2846,-2.27299 -4.9831,-5.48271 -5.9966,-7.13271 -1.0136,-1.65 -2.9997,-4.55229 -4.4136,-6.44954 -1.6565,-2.22275 -2.6602,-4.98815 -2.8221,-7.77587 -0.1383,-2.37948 -0.951,-5.02597 -1.8061,-5.88108 -0.8551,-0.85511 -1.3183,-1.93738 -1.0293,-2.40503 0.289,-0.46766 0.068,-1.13294 -0.4908,-1.4784 -0.559,-0.34546 -1.0163,-2.81406 -1.0163,-5.48576 0,-2.99508 -0.4793,-5.01897 -1.25,-5.27837 -0.9738,-0.32775 -0.9459,-0.78907 0.1262,-2.08783 0.7569,-0.91692 1.751,-5.1526 2.2091,-9.41262 0.4582,-4.26003 1.5264,-12.20629 2.3738,-17.65837 2.0576,-13.23686 1.9891,-15.82614 -0.4591,-17.35506 -1.971,-1.2309 -2.8631,-6.61646 -1.25,-7.54643 0.4125,-0.23781 2.7273,-0.15187 5.144,0.19099 5.2945,0.75111 7.2436,3.07217 5.2545,6.25722 -1.2014,1.92374 -1.0594,2.36203 1.4003,4.3234 2.648,2.11143 2.7213,2.43197 2.2468,9.82646 -0.2698,4.20411 -0.9524,8.22264 -1.5169,8.93006 -0.5645,0.70743 -1.3265,3.3623 -1.6934,5.89971 -1.154,7.98308 -1.6551,28.72533 -0.7081,29.31065 0.4974,0.30738 2.1408,2.92519 3.6521,5.81737 1.5114,2.89217 3.5219,5.80197 4.468,6.46621 0.946,0.66424 2.6497,3.36874 3.7859,6.01 1.1363,2.64126 2.9999,5.87914 4.1414,7.1953 1.1414,1.31615 2.0897,3.56166 2.1072,4.99 0.017,1.42834 0.6889,3.46555 1.492,4.52713 1.2928,1.70889 1.265,2.14574 -0.2421,3.81105 -1.4746,1.62947 -1.507,2.01904 -0.2419,2.91419 1.1966,0.84679 1.1444,0.93168 -0.2898,0.47034 -1.4673,-0.472 -1.75,0.0782 -1.75,3.40566 0,5.14443 -1.5596,5.1239 -2.384,-0.0314 z m -468.0446,-9.57143 c -0.8643,-0.86428 -1.5714,-2.78683 -1.5714,-4.27232 0,-2.20572 1.3292,-3.65879 7.25,-7.92571 6.1857,-4.4578 7.8612,-5.20191 11.4138,-5.0688 3.6016,0.13494 4.2289,0.49649 4.6458,2.67765 0.3894,2.03697 -0.507,3.46516 -4.6638,7.43059 -5.1561,4.91881 -11.2831,8.73002 -14.0345,8.73002 -0.8077,0 -2.1756,-0.70714 -3.0399,-1.57143 z m 399.6411,-14.61607 c -0.6669,-0.66688 -1.2125,-1.7975 -1.2125,-2.5125 0,-0.715 -0.45,-1.3 -1,-1.3 -1.3894,0 -1.2536,-6.34938 0.2042,-9.5489 1.0243,-2.24797 0.949,-2.78585 -0.5035,-3.59873 -1.3364,-0.7479 -1.575,-1.78657 -1.0968,-4.77655 0.419,-2.62074 0.067,-4.96704 -1.1208,-7.47018 -1.2999,-2.73935 -1.5407,-4.70368 -0.9657,-7.8775 0.4213,-2.32548 0.8867,-8.05314 1.0341,-12.72814 0.1872,-5.9334 0.8989,-9.95853 2.3572,-13.33032 1.149,-2.65668 1.8468,-5.80668 1.5506,-7 -0.2962,-1.19332 0.076,-4.86272 0.8267,-8.1542 1.2467,-5.4652 1.6078,-6.00318 4.1615,-6.19946 2.9174,-0.22424 5.5416,1.59625 5.5678,3.86255 0.012,0.99118 0.2478,0.95379 0.9456,-0.14961 1.2088,-1.91132 2.4982,-0.56884 2.6935,2.80437 0.085,1.46667 0.468,4.47728 0.8513,6.69025 0.6049,3.49224 0.2258,4.82732 -2.8702,10.10987 -1.9619,3.34746 -3.8371,7.83684 -4.1673,9.97642 -1.0271,6.65721 -1.0284,23.37168 0,23.71304 0.5315,0.17674 0.8518,2.02208 0.7118,4.10076 -0.14,2.07869 0.1523,4.29623 0.6494,4.92788 2.383,3.02745 1.8919,6.56386 -1.4125,10.17147 -1.8116,1.97772 -3.4335,4.7719 -3.6044,6.2093 -0.3556,2.99105 -1.8331,3.84525 -3.5982,2.08018 z M 1416.902,832.89143 c -2.475,-0.7089 -3.6,-1.33202 -2.5,-1.38471 1.6308,-0.0781 1.7284,-0.26754 0.529,-1.0261 -1.7636,-1.1153 -1.4443,-1.46923 2.4657,-2.73372 1.9393,-0.62716 4.4062,-0.62264 7,0.0128 5.0077,1.22691 4.7431,0.92617 3.558,4.04312 -1.1437,3.00818 -3.5301,3.24322 -11.0527,1.08856 z m -37,-20.36654 c 0,-1.42515 -0.6397,-2.08333 -2.0248,-2.08333 -2.0952,0 -4.2458,-3.88306 -3.8266,-6.9094 0.2731,-1.97201 -1.1174,-8.24008 -2.1276,-9.5906 -0.4114,-0.55 -1.0473,-2.95974 -1.4131,-5.35497 -0.7519,-4.9232 -3.1979,-10.24622 -5.2644,-11.45649 -0.7621,-0.4463 -1.1245,-1.2338 -0.8055,-1.75 0.319,-0.5162 -0.045,-0.93854 -0.81,-0.93854 -1.6214,0 -3.3456,-3.14472 -4.2492,-7.75 -0.5031,-2.56405 -0.3043,-3.25 0.9417,-3.25 0.8687,0 1.5795,0.62041 1.5795,1.37868 0,0.75827 1.4032,1.95991 3.1183,2.67031 1.715,0.7104 3.8525,2.48681 4.75,3.94758 2.5555,4.15954 6.8956,9.00343 8.0671,9.00343 0.5855,0 1.0646,0.45 1.0646,1 0,0.55 -0.45,1 -1,1 -1.8838,0 -1.0061,3.76514 1,4.28975 1.3515,0.35342 2,1.36401 2,3.11663 0,1.42649 -0.45,2.59362 -1,2.59362 -1.2283,0 -1.3278,4.24191 -0.1302,5.55 0.4783,0.5225 1.1406,2.75 1.4716,4.95 0.3426,2.27665 0.2432,3.42533 -0.2306,2.66615 -0.6694,-1.07255 -0.9515,-1.02357 -1.4403,0.25 -0.8308,2.16506 0.2297,4.58385 2.0098,4.58385 1.746,0 1.385,3.14603 -0.4303,3.75047 -0.7332,0.24412 -1.25,-0.44516 -1.25,-1.66714 z m -7,-1.14235 c 0,-0.58246 0.45,-0.7809 1,-0.44098 0.55,0.33992 1,0.81648 1,1.05902 0,0.24254 -0.45,0.44098 -1,0.44098 -0.55,0 -1,-0.47656 -1,-1.05902 z m 432.25,-49.54152 c -1.7875,-0.77286 -3.25,-1.98285 -3.25,-2.68887 0,-1.39311 8.7067,-8.31556 13.4133,-10.6646 1.6024,-0.79971 4.5315,-3.08836 6.5091,-5.08589 4.1307,-4.17216 7.106,-5.9601 9.9182,-5.9601 1.5189,0 1.8444,0.4887 1.4161,2.12647 -0.3595,1.37468 0.027,2.45286 1.0936,3.04969 2.1195,1.18611 2.0783,1.93384 -0.3963,7.19822 -4.312,9.17351 -20.0501,15.76674 -28.704,12.02508 z m -476.5004,-0.11575 c -1.5127,-0.22915 -3.239,-1.32967 -3.8362,-2.4456 -0.8893,-1.66156 -0.7081,-2.29358 1.0003,-3.49025 1.1475,-0.8037 2.0863,-1.90734 2.0863,-2.45253 0,-0.54519 1.1486,-1.98218 2.5524,-3.1933 3.09,-2.66595 4.392,-7.80224 4.4237,-17.45203 0.02,-6.01585 0.3005,-7.25 1.6489,-7.25 1.2816,0 1.4948,-0.65087 1.0089,-3.08036 -0.6579,-3.28975 -0.039,-4.22498 5.9436,-8.98056 4.4146,-3.50922 9.4128,-2.95376 12.7399,1.41581 4.2236,5.5469 4.1856,6.95794 -0.2966,11.00736 -2.2146,2.00076 -4.6521,3.63775 -5.4167,3.63775 -2.2417,0 -2.6953,2.74327 -1.9927,12.05086 0.5955,7.88822 0.454,9.04856 -1.425,11.68737 -1.9376,2.72108 -12.8863,9.44993 -14.8264,9.11194 -0.473,-0.0824 -2.0977,-0.33732 -3.6104,-0.56646 z m -33.6466,-22.13908 c -1.1998,-1.68498 -2.103,-4.49759 -2.103,-6.549 0,-3.52234 0.081,-3.59563 3.961,-3.59563 2.7967,0 4.5653,0.64852 6.0164,2.20608 l 2.0552,2.20608 -2.2159,1.18594 c -1.2188,0.65226 -2.8792,0.9314 -3.6899,0.62031 -1.1241,-0.43137 -1.2878,-0.10903 -0.6893,1.35798 2.1596,5.29421 -0.135,7.06155 -3.3345,2.56824 z m -37.603,-22.48211 c -9.2179,-2.79201 -10.6305,-4.66504 -9.6678,-12.81942 0.6475,-5.48512 0.832,-5.76714 6.0741,-9.28755 6.7014,-4.5004 13.7011,-5.4388 17.6135,-2.3613 2.8326,2.22812 3.3462,6.84214 0.9802,8.80575 -4.0155,3.33253 0.6155,4.34763 15.7211,3.44605 12.8636,-0.76777 13.9986,-1.4844 9.2789,-5.85847 -1.6424,-1.52216 -2.5,-3.39241 -2.5,-5.45225 0,-1.72443 -0.5027,-3.13533 -1.1172,-3.13533 -0.7812,0 -0.9461,-2.63182 -0.5483,-8.75 0.6314,-9.71019 1.3857,-13.10747 3.3463,-15.07143 0.7256,-0.72678 1.3192,-2.60999 1.3192,-4.1849 0,-1.57491 0.4621,-4.07901 1.027,-5.56466 0.9784,-2.5735 1.2684,-2.6726 6.134,-2.09635 3.3801,0.40032 5.5554,1.24508 6.4331,2.49827 0.7295,1.04139 2.6802,2.45427 4.3351,3.13973 2.1667,0.89751 2.9475,1.84561 2.7898,3.38782 -0.1968,1.9241 0.205,2.11013 3.9571,1.83231 2.2969,-0.17007 6.5719,-1.18857 9.5,-2.26334 7.4628,-2.73921 15.7618,-3.63587 16.9073,-1.82673 0.6316,0.99757 0.8904,1.04043 0.9013,0.14928 0.01,-0.6875 0.4653,-1.25 1.0153,-1.25 0.55,0 1,0.675 1,1.5 0,0.825 -0.6891,1.5 -1.5314,1.5 -0.8422,0 -1.7864,0.66447 -2.098,1.47661 -1.2273,3.19829 -23.2378,16.45215 -27.4966,16.55732 -0.7557,0.0187 -3.174,0.90339 -5.374,1.96607 -2.2,1.06268 -4.615,1.94741 -5.3666,1.96607 -0.9487,0.0236 -1.1586,0.72202 -0.6862,2.28393 1.4647,4.84353 1.7853,10.76497 0.6564,12.12515 -1.8499,2.22905 1.1207,2.73101 9.1992,1.55445 9.3399,-1.36026 24.6972,-0.29821 24.6972,1.70795 0,0.78387 -0.7875,1.70932 -1.75,2.05656 -0.9625,0.34724 -2.9445,1.45811 -4.4044,2.46862 -1.4599,1.0105 -3.5844,1.83727 -4.7212,1.83727 -1.1367,0 -5.7923,1.38491 -10.3456,3.07759 -4.5533,1.69267 -11.2038,3.54951 -14.7788,4.12631 -8.2068,1.32411 -46.4946,1.67183 -50.5,0.45862 z m 11.5,-13.66252 c 0,-0.55 -0.4234,-1 -0.941,-1 -0.5175,0 -1.2191,0.45 -1.559,1 -0.3399,0.55 0.083,1 0.941,1 0.8574,0 1.559,-0.45 1.559,-1 z m 531.6667,-14.66667 c -1.4294,-1.42935 -0.5376,-2.33333 2.3019,-2.33333 2.2279,0 2.825,0.37426 2.393,1.5 -0.5862,1.52755 -3.486,2.04226 -4.6949,0.83333 z m -18.3243,-46.20204 c -2.5463,-2.12693 -4.2915,-7.71284 -3.6731,-11.75703 0.905,-5.91838 2.6085,-11.3206 3.413,-10.8234 0.4579,0.28299 1.4865,-0.73768 2.2858,-2.26816 3.9261,-7.51735 12.2685,-11.02073 16.1946,-6.80089 1.6871,1.81331 1.9602,3.05974 1.5,6.84537 -0.4746,3.90346 -1.4185,5.50712 -6.0263,10.23872 -5.1419,5.27989 -5.4519,5.88189 -5.263,10.22121 0.1207,2.77423 -0.2921,4.92386 -1.0364,5.39658 -2.0413,1.29655 -5.1043,0.86063 -7.3946,-1.0524 z"
     id="path3328"
     inkscape:connector-curvature="0" />
</svg>
