<?xml version="1.0" encoding="UTF-8" standalone="no"?>
<!-- Created with Inkscape (http://www.inkscape.org/) -->

<svg
   xmlns:dc="http://purl.org/dc/elements/1.1/"
   xmlns:cc="http://creativecommons.org/ns#"
   xmlns:rdf="http://www.w3.org/1999/02/22-rdf-syntax-ns#"
   xmlns:svg="http://www.w3.org/2000/svg"
   xmlns="http://www.w3.org/2000/svg"
   xmlns:sodipodi="http://sodipodi.sourceforge.net/DTD/sodipodi-0.dtd"
   xmlns:inkscape="http://www.inkscape.org/namespaces/inkscape"
   width="2356"
   height="2356"
   id="svg4012"
   version="1.1"
   inkscape:version="0.48.4 r9939"
   sodipodi:docname="earthIcon.svg">
  <defs
     id="defs4014" />
  <sodipodi:namedview
     id="base"
     pagecolor="#ffffff"
     bordercolor="#666666"
     borderopacity="1.0"
     inkscape:pageopacity="0.0"
     inkscape:pageshadow="2"
     inkscape:zoom="0.24748737"
     inkscape:cx="1320.7137"
     inkscape:cy="1231.0126"
     inkscape:document-units="px"
     inkscape:current-layer="layer1"
     showgrid="false"
     inkscape:window-width="1615"
     inkscape:window-height="1026"
     inkscape:window-x="65"
     inkscape:window-y="24"
     inkscape:window-maximized="1"
     fit-margin-top="0"
     fit-margin-left="0"
     fit-margin-right="0"
     fit-margin-bottom="0" />
  <metadata
     id="metadata4017">
    <rdf:RDF>
      <cc:Work
         rdf:about="">
        <dc:format>image/svg+xml</dc:format>
        <dc:type
           rdf:resource="http://purl.org/dc/dcmitype/StillImage" />
        <dc:title></dc:title>
      </cc:Work>
    </rdf:RDF>
  </metadata>
  <g
     inkscape:label="Layer 1"
     inkscape:groupmode="layer"
     id="layer1"
     transform="translate(-993.42859,394.20926)">
    <path
       style="fill:#fafafa"
       d="m 2044.9511,1908.2527 c -19.7042,-25.8624 -125.4099,-8.4093 -155.0089,-74.9951 -17.2261,-19.4624 18.1151,-61.4287 -13.4911,-51.0375 -17.7744,-49.8575 0.5587,-105.4533 -14.0064,-156.7419 5.3844,-209.7881 -108.5236,-239.9595 -238.9525,-440.3015 14.1571,-42.9109 2.8982,-55.2525 6.6545,-105.9019 26.2942,-43.5539 78.2757,-70.4763 54.4566,-135.11486 -19.5191,-60.55772 -48.6076,-53.6854 -53.0802,-12.89764 -29.9904,-16.67387 -29.2838,-19.10147 -56.6459,-54.71578 -57.3406,-7.99303 -31.6382,-95.17907 -88.9415,-101.89672 -46.5093,-2.99791 -53.7575,-88.27569 -99.0295,-68.24518 24.3401,37.35346 189.8891,161.14611 72.0376,85.98973 -42.4805,-31.67791 -148.2072,-113.34542 -125.393,-108.47008 -9.1841,-52.30534 -77.3405,-51.72229 -63.1138,-97.33023 41.7115,-43.6515 -4.5359,-118.02555 0.4209,-174.88838 -3.8619,-34.76403 15.0614,-135.31008 -10.827,-36.93096 3.9053,57.94401 -18.2293,207.3253 -16.5936,70.7772 -16.84,-53.08089 18.5535,-108.71546 18.8017,-180.70439 -0.743,-82.65935 61.475,-159.53725 118.8642,-217.785124 47.3237,-72.594 90.0293,-140.00849 149.348,-198.512766 46.4617,-56.22839 21.4743,-60.48265 -12.75,-36.4055 14.4558,-23.41604 186.941,-115.02863 184.25,-99.97069 69.7967,-40.96821 68.9146,-11.57145 23.3292,30.81942 14.1556,15.24983 34.382,4.05844 35.4883,43.10397 -17.9427,25.66481 27.0343,28.78546 10.9488,2.06535 17.3809,-37.1891 40.2297,-8.46754 14.7075,-39.49903 83.7445,-40.92732 84.2004,7.6231 68.4299,11.5098 54.1146,-18.84395 -31.3876,59.00793 -59.1537,43.08645 -3.1218,43.24955 74.3786,7.64437 59.8349,7.15569 -44.2702,55.93156 17.3661,-15.76965 45.0658,-30.97036 91.8045,-45.71217 -57.3156,43.89501 -3.7829,52.76393 -6.6484,40.45908 42.8223,-54.06535 24.3295,-40.75328 30.6835,-26.54403 86.8694,-17.41324 97.9027,16.99078 26.6605,17.95412 35.6675,52.66928 56.443,70.30633 -28.2581,31.534796 -64.3953,-27.79791 -27.7053,35.431896 -15.7467,28.19136 -60.4935,24.36165 -77.2462,-15.124876 9.225,-20.85116 45.6793,-79.9217 -18.2492,-75.2034 -8.2435,22.11275 -54.7446,73.70438 -57.3426,56.5978 -34.5433,42.433566 -38.1744,-16.76143 -11.5,-18.18542 -50.1951,36.57038 -150.0797,39.029478 -144.6071,112.833126 61.6,19.0400691 74.7314,56.88204 78.0894,110.52799 38.2179,-47.68336 68.6925,-85.00403086 89.6275,-139.80641 18.0144,-60.756446 90.8288,-0.55945 82.3386,34.95151 57.2007,-43.70045 54.7582,19.53409914 88.1018,56.5 49.5802,18.52459 30.3651,105.106224 32.8766,82.318214 55.9728,8.39715 52.8278,76.98794 0.2871,44.85905 -94.7159,17.67271 40.5311,-104.208294 -56.3948,-47.08138 -46.3218,-14.80276 -168.1526,29.72229 -52.9389,19.03605 -39.0136,57.13411 71.2938,35.88705 52.6183,43.86807 7.1655,29.10612 -136.0649,71.37641 -69.1486,19.61717 -37.0213,-2.81245 -86.856,32.93162 -110.2929,64.38283 -51.3177,30.60451 -81.3442,37.94279 -86.6954,70.06844 8.9203,76.50653 -142.5285,55.81189 -107.415,154.93156 27.8603,95.78018 -55.4722,61.28383 -30.0786,-7.91953 -24.0191,-42.51231 -159.2972,-23.54356 -129.1432,-36.40559 -54.4162,-42.93978 -116.6438,34.45454 -125.3062,91.13179 -17.8959,40.52112 -6.5285,124.84792 39.6356,124.83774 42.9782,42.10883 58.5228,-94.55518 114.4375,-38.4265 -35.8658,50.516 21.5537,37.10265 -22.0374,67.1012 -6.6789,-52.80006 -49.3666,62.85058 7.7449,45.8386 86.052,2.00439 49.1213,142.47573 47.3011,118.8006 23.4593,50.0075 95.8034,29.81455 133.552,35.5689 10.712,-37.10112 121.4844,-81.49451 86.6234,-23.432 68.9591,-8.38211 177.1731,4.89206 215.7949,54.2137 129.6325,31.04541 158.7261,132.96089 231.434,189.68999 25.6805,-1.3181 80.2889,17.7426 111.3863,33.4274 56.9284,2.3221 129.3818,16.3871 164.5221,59.3271 23.9942,68.7622 -59.1933,101.2309 -79.6527,158.1776 3.5368,55.232 -29.7803,151.0223 -96.5961,157.6117 -69.9713,10.0006 -90.9177,66.7383 -124.6139,116.4475 -57.8169,21.5731 -42.7891,83.1622 -126.3609,53.0542 42.4234,27.9524 -6.2617,67.614 -56.6141,62.9548 -20.1667,27.5786 -38.6588,11.9301 -38.3678,56.2701 -37.4104,12.6179 31.3049,33.6282 -19.2679,52.416 33.3628,43.0427 146.2211,24.8244 60.1513,39.2953 -13.3141,9.9359 24.7427,7.9851 0.5093,8.9974 z M 1986.2506,155.07707 c -12.0603,-15.13796 -13.2423,8.12056 0,0 z m -58.2995,-2.80237 c 3.1792,-6.8283 -9.5521,6.29028 0,0 z m -515.48,-128.524174 c 4.5691,-6.71372 -11.4932,4.83929 0,0 z m 44.737,-48.05216 c -8.1463,2.36122 1.506,4.07793 0,0 z m 558.243,-58.85224 c -2.577,-5.503 -7.3697,-1.87348 0,0 z m 30.1833,-53.788096 c -3.904,-1.61568 3.3725,4.6018 0,0 z m -99.4503,-64.39954 c 9.3139,-22.06696 -8.9146,7.78854 0,0 z m 42.4948,-4.42315 c -8.7116,-10.4638 -6.0786,7.28913 0,0 z m -409.2278,-9.46064 c -3.5274,-3.43995 -4.1657,6.26298 0,0 z m 376.5,2102.5 c 1.2418,-3.9424 3.5882,3.8072 0,0 z m 62.8591,-99.9227 c -11.3291,-19.0176 28.4307,1.9025 0,0 z m 1086.5256,-295.8273 c 61.7588,-95.3625 75.7246,-208.5099 107.0205,-314.75 62.5392,-97.9635 -6.1062,-202.25498 2.8308,-303.0532 20.7962,-90.02035 -50.7018,-9.65175 -62.2361,-70.4383 -40.3191,8.16989 -39.7997,52.49449 -93.5,63.2581 -53.0402,34.6736 -64.3968,56.14963 -121.4316,4.3056 -43.2793,-38.95313 -92.3343,-87.21151 -115.9787,-142.1212 -67.4313,-132.56381 44.3994,-282.54245 15.4101,-392.70517 -23.9915,29.92336 -91.9873,-67.37046 -65.1913,-94.81085 36.0435,-3.06663 -83.5157,-113.81501 17.4912,-96.59324 89.4764,-43.19668 -106.5825,-69.571854 -38.2386,-98.310604 16.7842,1.32937 32.977,-98.74097 21.5957,-90.93246 -25.8858,-30.14971 -86.3673,-75.737236 -19.6086,-37.56888 -41.126,-77.149766 -94.3981,19.20942 -134.4058,-76.604876 -3.2367,-40.13964 -59.6257,-57.75781 -81.1424,-93.33296 -28.1041,-60.00441 145.1626,1.66421 50.2038,-41.19695 -31.8246,-40.72513 -218.6525,-97.63509 -197.6128,-68.36234 35.3803,16.5328 208.5493,48.78909 83.4202,15.52623 -129.1566,-43.00123 165.91,57.13251 132.083,36.7011 132.5311,52.55167 255.456,129.57452 355.9058,230.287546 136.7153,113.05654 235.9815,267.233534 301.6126,430.952454 25.2267,64.33857 62.2384,188.47398 72.5255,280.88443 38.1875,298.85157 -39.5091,621.85727 -230.7533,858.86557 z m 233.2674,-648.4978 c -3.404,10.46861 0.9085,15.65632 0,0 z M 2876.5258,281.6488 c 40.8286,-9.76234 100.1101,-128.64168 136.6847,-67.37222 14.4235,55.33101 70.135,40.53452 111.6234,56.09534 -57.3031,-75.17981 24.3739,-35.76218 30.3951,-73.10791 -6.7102,-52.24645 -65.2398,-135.430734 -64.0265,-61.43407 -19.4074,-13.09876 -90.231,-100.117664 -47.299,-30.60772 52.2468,45.5253 15.6653,59.24346 -24.7669,6.01407 -90.6191,-80.363904 -110.7869,-14.056262 -119.8938,1.16075 -58.6349,-4.60093 6.8056,42.51884 -26.4172,76.32649 41.5462,41.30917 7.1196,53.54631 -17.9618,85.67906 3.2525,7.83904 14.2009,13.22931 21.662,7.24621 z m 34.5006,-86.61666 c -24.9824,-34.91708 20.5075,-26.29169 0,0 z m 53.8869,-16.83043 c -26.2415,-31.06353 -74.1554,-113.066864 -9.9798,-35.17604 6.7668,-16.22422 22.0879,50.22623 9.9798,35.17604 z m 142.2877,-0.49987 c -31.5544,-13.34711 0.096,-51.65397 0,0 z m -29.1851,-13.35548 c -16.7885,1.57223 22.3979,-48.18893 0,0 z M 3047.6735,144.718 c -8.9323,-18.12269 16.9096,6.00693 0,0 z m 66.8421,-12.63075 c -13.9889,-39.532164 20.0153,18.60177 0,0 z m -38.5646,-1.81255 c 1.2095,-3.65614 2.4663,3.56227 0,0 z m 61.1183,136.33841 c -5.2417,-8.34563 4.6478,10.75936 0,0 z M 3028.951,92.274696 c -12.7016,-8.82401 5.4469,9.992054 0,0 z m 9.3419,-30 c -10.4476,-10.50063 2.1816,10.53963 0,0 z m -5.8127,-16.041 c 13.5223,-28.09899 -69.2884,-61.43033 -44.9052,-72.40227 10.8552,43.05289 -40.8071,-82.613546 -24.8511,-7.55673 1.7807,12.87726 41.8258,80.82258 69.7563,79.959 z m 21.5119,-28.89247 c -2.4447,-4.396021 -2.3474,2.99362 0,0 z m -274.4191,-86.43595 c 26.7476,-7.81733 42.3584,-39.012416 -9.148,-61.963606 10.9807,-13.27526 -31.3357,-27.86376 -40.4188,-43.28393 -33.149,18.14266 -153.8339,-105.20272 -60.7317,-8.90349 43.7671,22.10946 87.6557,133.638146 98.192,103.910346 -25.7961,-1.11106 -1.3393,26.23504 12.1065,10.24068 z m -25.5872,-56.734166 c -13.3506,-15.65663 21.4053,10.12716 0,0 z m -82.665,-117.45518 c -26.1647,-24.71723 -71.0311,-15.90285 0,0 z m -63.8698,-43.3434 c -13.4857,-13.21726 -5.7267,6.7865 0,0 z m -185,1759.75137 c 2.1396,-23.4242 6.1761,4.404 0,0 z m 84,-187.0445 c 10.2483,-16.8797 11.664,2.3592 0,0 z M 1828.2691,848.7747 c -1.1615,-24.56064 23.549,6.9045 0,0 z m 1271.6294,-0.5849 c 6.2321,-14.01843 19.3221,-7.26942 0,0 z M 1513.0662,717.5565 c -0.8939,-23.51072 37.5365,-23.74929 0,0 z m 29.0092,-4.8184 c 5.4659,-17.29352 21.107,5.1322 0,0 z m 472.738,-525.50111 c -38.4286,-13.76854 29.2852,-7.5556 0,0 z m 7.4386,-50.69976 c -39.2782,-24.39304 45.0505,-1.20655 0,0 z M 1811.7011,58.299906 c -8.99,-13.9321 19.9297,3.92746 0,0 z m 893.7851,-21.95947 c -19.1748,-22.75938 -13.2632,-61.83038 -51.5006,-61.59672 -8.957,-25.71909 36.6144,99.20021 -15.4131,42.57628 -39.3654,-31.1014 26.0809,-59.96337 -42.7057,-82.20805 8.3295,-16.76146 36.943,-20.24901 57.3775,10.55069 42.7597,32.66033 85.0804,29.48103 96.5131,68.0303 -15.1188,5.20309 -30.4102,24.31307 -44.2712,22.6475 z m -472.9145,-74.41217 c -52.7755,-16.33443 -115.5355,-81.318076 -75.5879,-129.628206 -34.986,10.70414 -1.6805,-36.61766 -48.7922,-67.0254 24.5888,-35.51012 -172.4979,-5.24263 -129.3624,-7.45688 83.6006,12.68678 -62.432,19.68357 -27.5298,-10.06126 -46.3908,15.53114 65.3358,-28.05981 52.6517,-15.63915 -48.5497,-24.39099 27.1947,-16.89966 33.2161,-30.63854 44.2887,-26.95037 100.0863,25.84775 129.3012,-4.6154 27.1871,-8.93018 76.1679,-3.20328 99.9383,14.01195 31.0953,36.16523 17.4563,26.00384 55.6915,52.07219 15.0889,31.28044 53.1285,63.8126 -7.1932,80.76981 -40.7632,32.55231 -71.3688,54.78811 -67.4874,116.872546 l -4.8468,2.55172 -9.9993,-1.21339 z m 4.2387,-17.22952 c 280.808,845.431604 140.404,422.715804 0,0 z m -67.3593,-238.983066 c -3.1062,-3.62658 -1.8976,5.03541 0,0 z m -275.6006,219.396236 c 8.9447,-19.01384 15.1488,5.10617 0,0 z m -28.9357,-5.89594 c 4.4703,-21.205166 42.0523,-3.40139 0,0 z m 65.5363,-12.78629 c 2.8346,-8.380966 11.2005,3.67735 0,0 z m -34,-5.008968 c 9.4643,-20.781938 17.3829,10.345218 0,0 z m 36.2405,-5.132448 c 20.138,-37.5799 54.6282,8.041726 0,0 z m 502.5317,-8.57459 c -47.6418,0.22172 -66.2478,-36.82342 -9.3201,-37.2886 40.7498,-21.71556 55.1694,35.92907 9.3201,37.2886 z m 16.828,-18.70594 c -13.8468,-4.15974 -12.887,6.8076 0,0 z m -54.9322,0.68942 c -1.6191,-11.11529 -14.2775,3.78702 0,0 z m -434.918,-11.00536 c -0.7101,-27.38055 42.7044,-0.60796 0,0 z m -420.2882,-36.47878 c -16.67,-9.76254 18.4882,-7.34062 0,0 z m 324.5382,-33.83133 c 17.0273,-47.24564 69.5752,-9.0655 1.7465,1.81014 z m 50.5051,-36.09861 c -21.7556,-20.63134 72.1343,-19.2772 0,0 z m -15.5051,-6.53976 c 5.0496,-9.6653 8.1472,6.80574 0,0 z m -14.4835,-1.63429 c -61.6636,-0.85501 35.8741,-58.03638 12.065,-11.58353 33.9449,-21.32412 -2.8546,24.97012 -12.065,11.58353 z m -4.7665,-19.94311 c 9.1751,-8.60445 -20.4657,5.14526 0,0 z m 100.4636,14.92243 c 0.056,-14.66149 14.2299,5.02658 0,0 z m -15.9636,-3.47593 c 8.8793,-35.04563 28.0582,0.58162 0,0 z m -10.75,-8.70831 c -35.8197,1.04978 49.6025,-29.66177 0,0 z m -39.25,-6.24122 c 3.7994,-15.27037 25.6432,0.41783 0,0 z m 19.75,-6.68819 c 8.4569,-10.00679 10.9971,3.5847 0,0 z m 50.4062,-0.8517 c 6.8193,-10.28011 9.0025,2.65284 0,0 z m -6.4062,-7.74131 c 5.2229,-7.75507 4.8305,4.4716 0,0 z m 419.4445,-1.61724 c -87.8047,-2.25121 -50.587,-45.90029 5.34,-11.84578 -55.6123,-14.84422 42.0546,21.0418 -5.34,11.84578 z m -682.0067,-5.91316 c 51.9999,-26.5355 8.7396,2.38987 0,0 z m 619.8122,-44.75149 c -42.6289,-18.23803 37.2869,-4.82846 8.8981,2.17263 z m 59.2499,-20.79512 c 174.0477,1053.69431 87.0239,526.84715 0,0 z"
       id="path4031"
       inkscape:connector-curvature="0"
       sodipodi:nodetypes="cccccccccccccccccccccccccccccccccccccccccccccccccccccccccccccccccccccccccccccccccccccccccccccccccccccccccccccccccccccccccccccccccccccccccccccccccccccccccccccccccccccccccccccccccccccccccccccccccccccccccccccccccccccccccccccccccccccccccccccccccccccccccccccccccccccccccccccccccc" />
  </g>
</svg>
