<?xml version="1.0" encoding="UTF-8" standalone="no"?>
<!-- Created with Inkscape (http://www.inkscape.org/) -->

<svg
   xmlns:dc="http://purl.org/dc/elements/1.1/"
   xmlns:cc="http://creativecommons.org/ns#"
   xmlns:rdf="http://www.w3.org/1999/02/22-rdf-syntax-ns#"
   xmlns:svg="http://www.w3.org/2000/svg"
   xmlns="http://www.w3.org/2000/svg"
   xmlns:sodipodi="http://sodipodi.sourceforge.net/DTD/sodipodi-0.dtd"
   xmlns:inkscape="http://www.inkscape.org/namespaces/inkscape"
   id="svg3039"
   version="1.1"
   inkscape:version="0.48.4 r9939"
   width="334.31546"
   height="1379.7701"
   sodipodi:docname="shipIcon.svg">
  <metadata
     id="metadata3045">
    <rdf:RDF>
      <cc:Work
         rdf:about="">
        <dc:format>image/svg+xml</dc:format>
        <dc:type
           rdf:resource="http://purl.org/dc/dcmitype/StillImage" />
      </cc:Work>
    </rdf:RDF>
  </metadata>
  <defs
     id="defs3043">
    <clipPath
       clipPathUnits="userSpaceOnUse"
       id="clipPath3922">
      <rect
         style="fill:#ffffff;fill-opacity:0.39269409"
         id="rect3924"
         width="1601.3102"
         height="1442.7498"
         x="-123.97281"
         y="-177.49379" />
    </clipPath>
  </defs>
  <sodipodi:namedview
     pagecolor="#ffffff"
     bordercolor="#666666"
     borderopacity="1"
     objecttolerance="10"
     gridtolerance="10"
     guidetolerance="10"
     inkscape:pageopacity="0"
     inkscape:pageshadow="2"
     inkscape:window-width="1615"
     inkscape:window-height="1026"
     id="namedview3041"
     showgrid="false"
     inkscape:zoom="0.5"
     inkscape:cx="295.25944"
     inkscape:cy="668.82282"
     inkscape:window-x="65"
     inkscape:window-y="24"
     inkscape:window-maximized="1"
     inkscape:current-layer="g4004"
     fit-margin-top="0"
     fit-margin-left="0"
     fit-margin-right="0"
     fit-margin-bottom="0" />
  <g
     id="g4004"
     transform="translate(-850.73414,-39.6875)">
    <g
       transform="translate(141.42136,-11.313708)"
       id="g3948">
      <path
         style="fill:#90EE90"
         clip-path="none"
         d="m 1018.125,39.6875 c -16.7309,152.16554 -3.6548,86.38101 -22.75,146.15625 C 891.7949,386.73566 827.31185,609.61383 858.71875,818 c 9.3602,69.72289 30.22905,136.96319 51.03125,203.8125 11.1933,46.2314 -15.81855,74.7742 -31.53125,132.0937 -11.2176,67.6226 -21.02685,133.6542 -8.21875,201.9376 0.3904,8.9183 6.93225,40.6916 8.96875,56.3437 1.956,15.0332 2.2878,5.2844 4.75,-15.8125 14.524,-74.5702 8.47445,-152.3447 67.71875,-211.1562 15.7066,-4.4562 -23.52725,76.1367 2.71875,76.3124 80.98625,0.059 106.25645,0.135 127.46875,0 26.246,-0.1757 -12.9878,-80.7686 2.7188,-76.3124 59.2443,58.8115 53.226,136.586 67.75,211.1562 2.4621,21.0969 2.794,30.8458 4.75,15.8125 2.0364,-15.6521 8.5471,-47.4254 8.9374,-56.3437 12.8081,-68.2834 2.9989,-134.315 -8.2187,-201.9376 -15.7126,-57.3196 -42.7246,-85.8623 -31.5313,-132.0937 20.8023,-66.84926 41.6711,-134.08961 51.0313,-203.8125 31.4069,-208.38617 -33.0448,-431.26434 -136.625,-632.15625 -19.0952,-59.77524 -5.5816,6.00928 -22.3125,-146.15625 z m 58.3125,336.4375 c 21.8515,0 39.5624,26.66534 39.5625,59.5625 0,32.89716 -17.711,59.5625 -39.5625,59.5625 -21.8515,0 -39.5625,-26.66534 -39.5625,-59.5625 0,-32.89716 17.711,-59.5625 39.5625,-59.5625 z"
         transform="translate(-141.42136,11.313708)"
         id="path3837"
         inkscape:connector-curvature="0"
         sodipodi:nodetypes="ccccccsccccccsccccccsssss" />
    </g>
  </g>
</svg>
