<?xml version="1.0" encoding="UTF-8" standalone="no"?>
<!-- Created with Inkscape (http://www.inkscape.org/) -->

<svg
   xmlns:dc="http://purl.org/dc/elements/1.1/"
   xmlns:cc="http://creativecommons.org/ns#"
   xmlns:rdf="http://www.w3.org/1999/02/22-rdf-syntax-ns#"
   xmlns:svg="http://www.w3.org/2000/svg"
   xmlns="http://www.w3.org/2000/svg"
   xmlns:sodipodi="http://sodipodi.sourceforge.net/DTD/sodipodi-0.dtd"
   xmlns:inkscape="http://www.inkscape.org/namespaces/inkscape"
   id="svg3163"
   version="1.1"
   inkscape:version="0.48.5 r10040"
   width="316.42645"
   height="784.0567"
   sodipodi:docname="spaceship.svg">
  <metadata
     id="metadata3169">
    <rdf:RDF>
      <cc:Work
         rdf:about="">
        <dc:format>image/svg+xml</dc:format>
        <dc:type
           rdf:resource="http://purl.org/dc/dcmitype/StillImage" />
        <dc:title></dc:title>
      </cc:Work>
    </rdf:RDF>
  </metadata>
  <defs
     id="defs3167">
    <clipPath
       clipPathUnits="userSpaceOnUse"
       id="clipPath3220">
      <rect
         style="fill:#141414;fill-opacity:1;fill-rule:evenodd;stroke:none"
         id="rect3222"
         width="1212.6343"
         height="802.08099"
         x="2.0026991"
         y="25.909582" />
    </clipPath>
    <clipPath
       clipPathUnits="userSpaceOnUse"
       id="clipPath3226">
      <rect
         style="fill:#141414;fill-opacity:1;fill-rule:evenodd;stroke:none"
         id="rect3228"
         width="1151.552"
         height="781.05261"
         x="13.017544"
         y="28.91363" />
    </clipPath>
    <clipPath
       clipPathUnits="userSpaceOnUse"
       id="clipPath2996">
      <rect
         style="fill:#0000ff;fill-rule:evenodd;stroke:#000000;stroke-width:1px;stroke-linecap:butt;stroke-linejoin:miter;stroke-opacity:1"
         id="rect2998"
         width="316.42645"
         height="784.0567"
         x="847.7572"
         y="28.91361" />
    </clipPath>
  </defs>
  <sodipodi:namedview
     pagecolor="#ffffff"
     bordercolor="#666666"
     borderopacity="1"
     objecttolerance="10"
     gridtolerance="10"
     guidetolerance="10"
     inkscape:pageopacity="0"
     inkscape:pageshadow="2"
     inkscape:window-width="1615"
     inkscape:window-height="1026"
     id="namedview3165"
     showgrid="false"
     inkscape:zoom="0.99865229"
     inkscape:cx="-222.91509"
     inkscape:cy="392.79677"
     inkscape:window-x="65"
     inkscape:window-y="24"
     inkscape:window-maximized="1"
     inkscape:current-layer="svg3163"
     fit-margin-top="0"
     fit-margin-left="0"
     fit-margin-right="0"
     fit-margin-bottom="0" />
  <path
     style="fill:#000000;fill-opacity:1"
     d="m 92.381776,839.70259 c 0,-1.6744 9.996694,-2.832 22.900884,-2.6518 l 7.59912,0.1062 -9.5,1.3371 c -19.151884,2.6955 -21.000004,2.8019 -21.000004,1.2085 z m 56.000004,-2.6989 c 0,-2.1675 -0.45,-4.2191 -1,-4.559 -0.55,-0.3399 -0.98569,-1.154 -0.9682,-1.809 0.0177,-0.6627 0.61606,-0.4216 1.34888,0.5435 0.72439,0.9539 1.61008,1.4414 1.9682,1.0833 0.35811,-0.3581 0.65112,0.113 0.65112,1.0469 0,0.934 0.675,1.9571 1.5,2.2737 0.825,0.3166 1.5,1.6524 1.5,2.9686 0,1.8859 -0.52981,2.393 -2.5,2.393 -2.24376,0 -2.5,-0.4039 -2.5,-3.941 z m 38.99999,2.9002 c -4.12499,-0.4048 -11.70567,-1.0816 -16.84594,-1.5041 -17.3191,-1.4235 -6.84859,-2.0531 20.34594,-1.2234 45.94411,1.4017 223.9538,-0.8552 334.00001,-4.2348 18.15,-0.5574 57.75,-1.4638 88,-2.0142 30.25,-0.5504 68.725,-1.4224 85.5,-1.9376 16.775,-0.5153 91.69999,-1.4262 166.49999,-2.0243 133.47298,-1.0673 250.85053,-3.1837 286.82483,-5.1718 9.9963,-0.5524 20.2604,-0.9589 22.8091,-0.9032 3.547,0.078 4.7911,-0.3081 5.3038,-1.6442 0.5524,-1.4397 0.8222,-1.4989 1.5398,-0.3379 0.7272,1.1767 1.1333,1.1891 2.4752,0.075 1.1814,-0.9805 3.9074,-1.197 10.3262,-0.82 4.7965,0.2817 7.371,0.1947 5.721,-0.1934 l -3,-0.7055 3,-0.4986 c 1.65,-0.2742 -0.037,-0.2881 -3.75,-0.031 -4.6243,0.3204 -6.75,0.1121 -6.75,-0.6615 0,-0.7197 2.4484,-1.1579 6.75,-1.2082 3.7125,-0.043 6.1875,-0.3059 5.5,-0.5833 -0.7276,-0.2936 -1.25,-2.2989 -1.25,-4.7986 0,-2.5972 -0.5928,-4.7862 -1.5,-5.5392 -0.825,-0.6846 -1.5,-2.3147 -1.5,-3.6224 0,-1.5457 -0.5791,-2.3776 -1.655,-2.3776 -1.54,0 -1.54,-0.127 0,-1.8287 0.9103,-1.0058 1.655,-2.8058 1.655,-4 0,-1.1942 0.4154,-2.1713 0.9231,-2.1713 1.9288,0 7.0769,-6.2392 7.0769,-8.5769 0,-2.1602 0.4339,-2.4231 4,-2.4231 3.6,0 4,-0.25 4,-2.5 0,-1.6394 -0.5585,-2.5 -1.6224,-2.5 -1.3288,0 -1.3972,-0.2714 -0.3776,-1.5 0.7253,-0.8739 2.9075,-1.5 5.2285,-1.5 3.0582,0 4.4405,-0.5808 5.9502,-2.5 1.1327,-1.4399 2.9957,-2.5 4.3939,-2.5 1.6501,0 2.4274,-0.5634 2.4274,-1.7594 0,-0.9677 0.9,-2.3215 2,-3.0085 1.1,-0.6869 2,-1.6952 2,-2.2405 0,-0.5454 -0.9,-0.9916 -2,-0.9916 -1.1111,0 -2,-0.6666 -2,-1.5 0,-1.1303 1.2142,-1.5 4.9274,-1.5 4.0649,0 5.2717,-0.4376 6.8939,-2.5 1.0816,-1.375 2.4643,-2.5 3.0726,-2.5 0.6084,0 1.1061,1.125 1.1061,2.5 0,1.375 0.3803,2.5 0.845,2.5 1.1479,0 4.155,-3.406 4.155,-4.7063 0,-0.5768 0.675,-1.609 1.5,-2.2937 0.825,-0.6846 1.5,-2.3147 1.5,-3.6224 0,-1.8694 0.5343,-2.3776 2.5,-2.3776 2.25,0 2.5,0.4 2.5,4 0,3.5662 0.2628,4 2.4231,4 3.1545,0 8.5769,-5.4223 8.5769,-8.5769 0,-2.3622 0.2011,-2.4231 8,-2.4231 6.4444,0 8,0.2917 8,1.5 0,0.825 0.675,1.5 1.5,1.5 1.0833,0 1.5,1.1112 1.5,4 0,4 0,4 -4,4 -4,0 -4,0 -4,4 0,2.8889 -0.4167,4 -1.5,4 -1.0833,0 -1.5,-1.1111 -1.5,-4 0,-4 0,-4 -4,-4 -4,0 -4,0 -4,4 0,2.8889 -0.4167,4 -1.5,4 -1.0833,0 -1.5,1.1112 -1.5,4 0,2.8889 0.4167,4 1.5,4 1.0833,0 1.5,-1.1111 1.5,-4 0,-4.7005 1.1862,-5.0278 4.53,-1.25 2.0541,2.3208 2.5878,2.5159 3.4191,1.25 0.8416,-1.2816 1.3174,-1.1553 3.268,0.8671 1.5813,1.6396 1.8988,2.5104 1.0329,2.8333 -0.7079,0.2641 -1.25,2.165 -1.25,4.383 0,2.8148 -0.422,3.9166 -1.5,3.9166 -1.1082,0 -1.5,1.1603 -1.5,4.4425 l 0,4.4425 -4.25,0.3828 -4.25,0.3828 4.25,0.1747 c 5.3909,0.2216 5.6154,2.1747 0.25,2.1747 -2.2,0 -4,0.45 -4,1 0,0.55 1.6071,1 3.5714,1 3.6753,0 8.1097,2.9397 5.6641,3.7549 -0.8455,0.2818 -0.5908,0.9513 0.7915,2.0803 1.8093,1.478 1.8941,1.9727 0.7555,4.407 -0.7054,1.5083 -1.9575,2.7601 -2.7825,2.7818 -1.5402,0.041 -5,2.2761 -5,3.2305 0,0.2937 1.1296,0.4691 2.5102,0.3898 1.6146,-0.093 2.3322,-0.6088 2.0115,-1.4462 -0.2791,-0.7286 -0.04,-1.0185 0.5425,-0.6584 2.3394,1.4459 -0.014,2.8777 -4.8619,2.9588 l -5.1603,0.086 1.5721,-2.3993 c 1.2451,-1.9002 1.3142,-2.6371 0.3323,-3.5424 -0.9407,-0.8673 -1.0684,-0.8397 -0.5293,0.1146 1.0429,1.8462 -1.8469,4.2444 -5.0957,4.2287 -4.032,-0.02 -7.3912,-1.0645 -6.7511,-2.1001 0.6349,-1.0273 -3.9119,-1.168 -8.4453,-0.2613 -2.2381,0.4476 -3.125,1.1873 -3.125,2.6061 0,1.0896 -1.125,2.866 -2.5,3.9476 -2.5702,2.0217 -3.4847,7.0947 -1.5,8.3213 1.3855,0.8563 1.26,4.5 -0.155,4.5 -0.655,0 -0.3714,0.8658 0.655,2 2.4867,2.7478 3.5662,2.5057 3.3446,-0.75 -0.4571,-6.7181 3.7199,-11.6577 10.7495,-12.7118 4.873,-0.7308 10.9383,1.632 10.0606,3.9191 -0.7999,2.0845 3.8605,2.5427 25.8633,2.5427 16.897,0 20.3617,-0.2441 20.8313,-1.468 0.3099,-0.8073 0.133,-1.7339 -0.393,-2.059 -0.526,-0.3251 -0.9632,-1.802 -0.9716,-3.282 -0.012,-2.0364 -0.2401,-2.3357 -0.9392,-1.2303 -0.5825,0.9209 -0.8135,-3.8828 -0.6251,-13 0.2838,-13.7336 -0.4009,-23.3472 -1.9381,-27.2107 -0.4808,-1.2083 -0.2219,-1.75 0.8363,-1.75 1.2554,0 1.4777,-1.2207 1.2288,-6.75 -0.1671,-3.7125 0.1465,-7.3125 0.6968,-8 0.6803,-0.8497 0.6464,-1.25 -0.1057,-1.25 -0.7704,0 -0.9483,-3.1124 -0.5856,-10.25 0.2864,-5.6375 0.4435,-12.725 0.3491,-15.75 -0.094,-3.025 -0.2234,-7.5802 -0.2868,-10.1227 -0.081,-3.2537 -0.4854,-4.4806 -1.3652,-4.143 -1.8882,0.7246 -1.5,-1.0888 0.75,-3.5039 2.2115,-2.3738 2.6459,-3.7476 0.8301,-2.6254 -0.7977,0.493 -0.9568,0.1676 -0.5,-1.0227 0.3684,-0.9602 0.6699,-3.2841 0.6699,-5.1641 0,-2.3717 0.4592,-3.4182 1.5,-3.4182 1.7919,0 1.9364,-1.1636 0.3424,-2.7576 -0.8768,-0.8768 -0.8318,-1.5502 0.1857,-2.7762 0.7975,-0.9609 0.9609,-1.8924 0.4021,-2.2924 -0.5177,-0.3706 -0.9061,-2.4738 -0.8632,-4.6738 0.043,-2.2 -0.2933,-4.7602 -0.7472,-5.6893 -0.48,-0.9826 -0.4057,-1.9486 0.1775,-2.309 0.5515,-0.3409 1.0027,0.055 1.0027,0.8803 0,0.825 0.4365,1.7697 0.9699,2.0994 0.5334,0.3297 0.369,-1.1062 -0.3654,-3.191 -1.4048,-3.9877 -1.0493,-10.2904 0.5804,-10.2904 0.5269,0 0.2409,-0.717 -0.6355,-1.5935 -1.262,-1.2619 -1.4419,-2.6662 -0.8651,-6.75 0.4007,-2.836 0.7481,-6.169 0.7721,-7.4065 0.057,-2.9269 0.3594,-2.8372 1.6875,0.5 0.602,1.5125 1.295,2.2125 1.5402,1.5555 0.2451,-0.6571 -0.058,-2.1366 -0.6746,-3.2878 -0.6162,-1.1513 -0.8261,-3.0203 -0.4664,-4.1534 0.3596,-1.133 -0.1221,-4.092 -1.0706,-6.5754 -1.3066,-3.4213 -1.4337,-4.6948 -0.5245,-5.2567 0.8956,-0.5536 0.8008,-1.1405 -0.3741,-2.3154 -2.1193,-2.1194 -2.016,-6.3314 0.1761,-7.1812 1.6667,-0.6461 1.6667,-0.7398 0,-1.9672 -0.9625,-0.7089 -1.75,-2.0533 -1.75,-2.9876 0,-1.0312 -0.4913,-1.4492 -1.25,-1.0636 -0.6875,0.3493 -0.2375,-0.2587 1,-1.3513 2.2111,-1.9521 3.2081,-4.876 1.25,-3.6659 -0.55,0.3399 -1,0.168 -1,-0.382 0,-0.55 0.375,-1.2317 0.8333,-1.5149 0.4583,-0.2833 0.6322,-1.8848 0.3865,-3.5591 -0.2696,-1.837 -0.01,-3.044 0.6667,-3.044 0.6124,0 1.1135,-0.4765 1.1135,-1.059 0,-0.5825 -0.4189,-0.8001 -0.9309,-0.4837 -0.512,0.3164 -1.1819,0.1692 -1.4888,-0.3273 -0.3068,-0.4964 0.4002,-1.1531 1.571,-1.4593 1.8986,-0.4965 2.0399,-0.9686 1.3068,-4.3637 -1.2295,-5.694 -0.9592,-18.64 0.3987,-19.0926 1.4431,-0.481 1.4967,-3.8779 0.075,-4.7565 -0.5875,-0.3631 -0.8262,-1.2906 -0.5306,-2.0611 0.2957,-0.7705 0.1543,-3.4528 -0.3142,-5.9607 -0.6933,-3.711 -0.5946,-4.4611 0.5305,-4.0294 1.4993,0.5754 1.9317,-0.9492 0.5173,-1.8234 -1.4949,-0.9239 -2.1056,-7.6572 -0.8734,-9.6303 0.9174,-1.4689 0.793,-2.9003 -0.5848,-6.732 -1.9599,-5.4502 -1.4417,-8.221 1.5374,-8.221 1.5042,0 1.8268,-0.4338 1.3014,-1.75 -1.0513,-2.6334 -1.4791,-6.1192 -1.5522,-12.6491 -0.036,-3.2446 -0.6827,-7.0915 -1.4363,-8.5489 -1.0694,-2.0679 -1.1402,-3.7283 -0.3226,-7.5617 0.7426,-3.482 0.7233,-7.2054 -0.066,-12.7893 -0.7419,-5.2462 -0.7839,-8.4938 -0.1259,-9.7234 0.5434,-1.0153 0.988,-2.9107 0.988,-4.2118 0,-1.3012 0.4917,-2.8575 1.0926,-3.4584 0.7902,-0.7902 0.7902,-1.6578 0,-3.1343 -1.3677,-2.5557 -1.4261,-5.4972 -0.093,-4.6731 1.6107,0.9955 1.1519,-3.8381 -0.602,-6.3421 -0.8811,-1.258 -1.335,-2.5542 -1.0087,-2.8805 0.3264,-0.3264 0.1026,-1.1847 -0.4973,-1.9075 -0.8072,-0.9726 -0.675,-1.7297 0.5087,-2.9134 1.9614,-1.9614 1.9615,-1.9741 0.041,-4.9046 -1.9098,-2.9147 -2.2948,-13.8194 -0.5617,-15.9076 0.8678,-1.0457 0.9021,-1.6607 0.1197,-2.1443 -0.7885,-0.4873 -0.7924,-1.0452 -0.014,-1.9831 0.8002,-0.9642 0.6356,-1.7524 -0.6302,-3.0182 -1.3567,-1.3567 -1.5053,-2.2643 -0.7139,-4.3609 0.5496,-1.4562 0.674,-3.8643 0.2763,-5.3512 -0.491,-1.836 -0.273,-3.0772 0.6794,-3.8676 0.8502,-0.7056 1.4024,-3.0721 1.4024,-6.01 0,-3.8969 -0.2938,-4.7335 -1.5,-4.2706 -1.7474,0.6705 -2.1089,-2.144 -0.4102,-3.1939 0.6566,-0.4058 0.8373,-2.0193 0.4547,-4.059 -0.4103,-2.187 -0.2442,-3.3855 0.4692,-3.3855 0.6329,0 0.7713,-0.5336 0.3242,-1.25 -0.4291,-0.6875 -0.882,-2.825 -1.0063,-4.75 -0.1244,-1.925 -0.5319,-5.8602 -0.9056,-8.7448 -0.4253,-3.2833 -0.2757,-5.7314 0.4002,-6.5458 0.7187,-0.8659 0.8043,-3.2915 0.256,-7.2551 -0.9065,-6.5531 -0.1272,-14.746 1.7252,-18.1385 1.7326,-3.1733 1.461,-8.3554 -0.5574,-10.6331 -1.1126,-1.2556 -1.3461,-2.117 -0.641,-2.3651 1.4898,-0.5243 0.9449,-15.566 -0.7085,-19.5578 -1.1077,-2.6742 -1.032,-3.1904 0.6477,-4.4187 1.5958,-1.1669 1.7048,-1.7064 0.6769,-3.3523 -1.4874,-2.3817 -1.6188,-6.9888 -0.1994,-6.9888 0.576,0 0.3206,-1.3634 -0.5826,-3.11 -0.8846,-1.7106 -1.1211,-2.809 -0.5257,-2.441 0.639,0.3949 1.0826,-0.1505 1.0826,-1.331 0,-1.1 -0.479,-2.296 -1.0644,-2.6578 -0.6791,-0.4197 -1.0061,-5.4192 -0.9032,-13.809 0.089,-7.2332 -0.159,-14.6178 -0.5504,-16.4103 -0.3914,-1.7926 -0.2949,-3.8176 0.2145,-4.5 1.0366,-1.3888 1.0014,-2.3933 -0.1786,-5.0918 -0.4451,-1.018 -0.4063,-2.143 0.086,-2.5 0.4926,-0.357 0.9674,-3.3491 1.0549,-6.6491 0.088,-3.3 0.2615,-7.7612 0.3864,-9.9137 0.1556,-2.6814 -0.2921,-4.2934 -1.422,-5.1196 -1.5033,-1.0992 -1.4611,-1.3306 0.4775,-2.6178 2.0461,-1.3585 2.069,-1.5814 0.6066,-5.8888 -1.492,-4.3946 -2.0659,-9.5103 -1.7343,-15.4601 0.1453,-2.6084 0.2794,-2.7389 1.0266,-1 0.8103,1.8856 0.8635,1.8672 0.9297,-0.3214 0.039,-1.2768 -0.534,-2.9257 -1.2725,-3.6642 -1.417,-1.417 -3.119,-21.1473 -2.0619,-23.9021 0.3136,-0.8173 1.208,-1.2413 1.9875,-0.9422 1.8363,0.7047 1.7926,-0.6103 -0.1497,-4.5037 -0.8618,-1.7275 -1.273,-3.6164 -0.9139,-4.1975 0.3591,-0.5811 0.1779,-1.6289 -0.4027,-2.3286 -0.5807,-0.6996 -1.356,-3.9424 -1.723,-7.2061 -0.367,-3.2638 -1.0715,-6.7217 -1.5656,-7.6842 -0.5544,-1.0801 -0.4979,-2.4981 0.1477,-3.7044 0.7538,-1.4086 0.6746,-3.0322 -0.2836,-5.8137 -0.9598,-2.7857 -1.0344,-4.3273 -0.2681,-5.5421 0.7673,-1.2164 0.7147,-2.2382 -0.1897,-3.6863 -0.7514,-1.2044 -0.8448,-2.0035 -0.2335,-2.0035 0.6111,0 0.5148,-0.8224 -0.2415,-2.0609 -1.0442,-1.7099 -0.9952,-2.2634 0.2873,-3.25 1.1263,-0.8664 1.4382,-2.4783 1.1493,-5.9391 -0.3217,-3.8535 -0.094,-4.75 1.2042,-4.75 1.1119,0 1.6007,-0.9161 1.6007,-2.999999 0,-2.3029 -0.451,-3 -1.941,-3 -2.6856,0 -3.5377,-1.7961 -1.809,-3.813 1.6896,-1.9712 3.1528,-5.3132 2.8696,-6.5544 -0.1088,-0.4771 -0.2175,-3.4021 -0.2415,-6.5 -0.024,-3.0979 -0.4259,-8.7625 -0.893,-12.5879 -0.4672,-3.8254 -0.6178,-7.3301 -0.3346,-7.7882 0.2831,-0.4581 0.6469,-3.85318 0.8085,-7.54468 0.1616,-3.6915 0.6373,-11.46151 1.057,-17.26668 0.5859,-8.1021 0.4521,-11.12307 -0.5757,-13 -0.7364,-1.34483 -1.2297,-3.36121 -1.0961,-4.48086 0.162,-1.35816 -0.3542,-2.0629 -1.5507,-2.1174 -3.2498,-0.14801 -28.6965,-0.45 -33.5301,-0.39792 -4.4322,0.0478 -4.8288,0.2717 -6.1712,3.48462 -1.4663,3.50928 -5.8815,6.56642 -9.4835,6.56642 -3.5023,0 -3.2685,-1.83036 0.4599,-3.59959 1.9883,-0.94349 3.8784,-2.43206 4.2003,-3.30793 0.3219,-0.87586 1.0164,-1.88166 1.5434,-2.23509 0.6013,-0.40324 0.5353,-1.85574 -0.177,-3.89923 -0.6244,-1.7911302 -1.1353,-3.6394602 -1.1353,-4.1073902 0,-0.46792 49.5,-0.85077 110,-0.85077 l 110,0 0,417.5014992 0,417.5016 -643.24993,-0.154 c -353.7875,-0.085 -646.625,-0.4852 -650.75,-0.8899 z m 1115.99993,-14.9592 c 0,-0.55 -0.45,-1 -1,-1 -0.55,0 -1,0.45 -1,1 0,0.55 0.45,1 1,1 0.55,0 1,-0.45 1,-1 z m -86.75,-9.6623 c -0.6875,-0.2774 -1.8125,-0.2774 -2.5,0 -0.6875,0.2774 -0.125,0.5044 1.25,0.5044 1.375,0 1.9375,-0.227 1.25,-0.5044 z m -8,-1 c -0.6875,-0.2774 -1.8125,-0.2774 -2.5,0 -0.6875,0.2774 -0.125,0.5044 1.25,0.5044 1.375,0 1.9375,-0.227 1.25,-0.5044 z m 48.75,-15.3377 c 0,-0.55 -0.45,-1 -1,-1 -0.55,0 -1,0.45 -1,1 0,0.55 0.45,1 1,1 0.55,0 1,-0.45 1,-1 z m 17.9167,-0.9167 c 1.0541,-1.0541 2.072,-1.8416 2.2619,-1.75 0.19,0.092 -0.3085,-0.3958 -1.1078,-1.0833 -0.7992,-0.6875 -1.9296,-1.2431 -2.5119,-1.2347 -0.5824,0.01 -0.3839,0.4515 0.4411,0.9847 1.1817,0.7637 0.9518,0.9726 -1.0833,0.9847 -3.2502,0.019 -4.2177,0.9477 -2.7856,2.6733 1.5048,1.8131 2.5196,1.6913 4.7856,-0.5747 z m -10.4167,-2.0833 c 0.3399,-0.55 0.1415,-1 -0.441,-1 -0.5824,0 -1.059,0.45 -1.059,1 0,0.55 0.1984,1 0.441,1 0.2425,0 0.7191,-0.45 1.059,-1 z m -5.485,-2.028 c 0.5969,-1.1154 1.4618,-1.7954 1.9219,-1.511 0.4601,0.2843 1.4113,-0.1756 2.1139,-1.0222 1.0548,-1.271 0.9646,-1.8353 -0.5178,-3.239 -1.7,-1.6097 -1.7677,-1.5845 -1.2773,0.4754 0.3833,1.6098 0.1409,2.0305 -0.9327,1.6185 -0.825,-0.3166 -2.1087,0.383 -2.9769,1.6225 -1.2088,1.7258 -1.8196,1.9357 -2.9362,1.009 -1.1379,-0.9443 -1.4099,-0.7606 -1.4099,0.9524 0,2.8643 4.4948,2.9349 6.015,0.094 z m 7.3301,-3.5151 c -0.3257,-0.8487 -0.8066,-1.3287 -1.0688,-1.0666 -0.2621,0.2622 -0.18,0.9566 0.1826,1.5432 0.986,1.5954 1.5624,1.2855 0.8862,-0.4766 z m 46.1122,-8.3878 c 0.3164,-0.512 0.118,-1.2136 -0.441,-1.559 -0.559,-0.3455 -1.0163,0.073 -1.0163,0.9309 0,1.7565 0.6001,2.0151 1.4573,0.6281 z m -75.4573,-18.0691 c 0,-2.2667 -1.037,-2.563 -2.8,-0.8 -1.763,1.763 -1.4667,2.8 0.8,2.8 1.3333,0 2,-0.6667 2,-2 z m 228,-215.5 c 0,-0.825 -0.675,-1.5 -1.5,-1.5 -0.825,0 -1.5,0.675 -1.5,1.5 0,0.825 0.675,1.5 1.5,1.5 0.825,0 1.5,-0.675 1.5,-1.5 z m -12.4116,-128.2449 c -1.0924,-1.0924 -1.8415,0.6448 -1.0572,2.4518 0.7437,1.7133 0.7976,1.7118 1.212,-0.035 0.2385,-1.0056 0.1688,-2.0931 -0.1548,-2.4167 z m -20.2268,-79.7551 c -0.3166,-0.825 -0.7524,-1.5 -0.9686,-1.5 -0.2161,0 -0.393,0.675 -0.393,1.5 0,0.825 0.4359,1.5 0.9686,1.5 0.5328,0 0.7096,-0.675 0.393,-1.5 z m -2.6369,-22.7321 c -0.2225,-1.7973 -0.4092,-0.5679 -0.4148,2.7321 -0.01,3.3 0.1765,4.7706 0.4046,3.2679 0.2282,-1.5026 0.2328,-4.2026 0.01,-6 z m -32.7247,-163.9679 c 0,-1.6154 -0.2957,-1.9043 -1.1129,-1.0871 -0.612,0.612 -0.8105,1.602 -0.441,2.2 1.0344,1.6737 1.5539,1.3016 1.5539,-1.1129 z M 155.19428,836.26159 c 0.72187,-0.2889 1.58437,-0.2534 1.91667,0.079 0.33229,0.3323 -0.25834,0.5686 -1.3125,0.5252 -1.16495,-0.048 -1.4019,-0.2849 -0.60417,-0.6041 z M 1173.397,815.19469 c 0.01,-0.9987 0.3357,-1.3207 0.7616,-0.75 0.4105,0.55 1.1536,1.3375 1.6514,1.75 0.4978,0.4125 0.155,0.75 -0.7616,0.75 -0.9265,0 -1.6599,-0.7772 -1.6514,-1.75 z m 8.7347,-0.9123 c 0.6875,-0.2774 1.8125,-0.2774 2.5,0 0.6875,0.2774 0.125,0.5044 -1.25,0.5044 -1.375,0 -1.9375,-0.227 -1.25,-0.5044 z m 78.5,-7 c -2.3491,-0.9479 -1.2536,-1.9154 2.2752,-2.0095 2.8928,-0.077 3.3193,0.1542 2.3776,1.2889 -1.1745,1.4152 -2.4441,1.6118 -4.6528,0.7206 z m -4.25,-2.3377 c 0,-0.55 0.45,-1 1,-1 0.55,0 1,0.45 1,1 0,0.55 -0.45,1 -1,1 -0.55,0 -1,-0.45 -1,-1 z m 24.25,-0.5685 c -1.7396,-1.8747 -1.5679,-2.4315 0.75,-2.4315 2.1038,0 2.454,0.7485 1.2347,2.6393 -0.5347,0.8293 -1.0749,0.7727 -1.9847,-0.2078 z m -267.4746,-0.9894 c -0.2217,-0.2217 -18.37435,-0.4459 -40.33915,-0.4982 -27.781,-0.066 -43.58856,-0.5297 -51.93618,-1.523 -6.6,-0.7854 -15.6,-1.8619 -20,-2.3923 -4.4,-0.5303 -16.55,-1.428 -27,-1.9947 -10.45,-0.5668 -22.15,-1.4701 -26,-2.0074 -6.85014,-0.9559 -22.14587,-1.8929 -69.5,-4.2573 -34.52975,-1.7241 -77.21305,-1.7991 -104.49999,-0.1837 -13.2,0.7815 -33,1.865 -44,2.408 -11,0.5429 -29.675,1.4632 -41.5,2.0451 -11.825,0.5819 -29.15,1.7386 -38.5,2.5705 -33.67922,2.9965 -44.16267,3.3361 -122.50001,3.9686 -60.98304,0.4924 -85.4394,0.3253 -105,-0.7177 -29.88247,-1.5934 -42.50362,-1.5884 -85,0.034 -40.24028,1.536 -72.94111,-0.1811 -92.49999,-4.8572 -6.6,-1.578 -15.15,-3.6168 -19,-4.5309 -3.85,-0.914 -12.4,-2.5388 -19,-3.6108 -6.6,-1.0719 -13.912504,-2.6729 -16.250004,-3.5578 -4.18916,-1.5858 -4.25,-1.6778 -4.25,-6.4259 0,-2.6494 -0.49983,-5.9141 -1.11073,-7.2549 -0.92887,-2.0387 -0.73941,-2.94 1.15715,-5.5053 1.61754,-2.1878 1.97746,-3.4379 1.25516,-4.3592 -0.557,-0.7105 -1.26058,-2.3043 -1.56353,-3.5418 -0.64614,-2.6394 -1.26115,-2.526 15.761954,-2.9075 6.6,-0.1479 18.75,-0.5342 27,-0.8585 8.25,-0.3243 50.55,-1.0219 93.99999,-1.5502 79.89966,-0.9715 113.06266,-1.8303 148.5,-3.8454 57.58664,-3.2746 91.62814,-3.9651 178.50001,-3.6208 48.4,0.1918 97.675,0.8242 109.5,1.4053 11.825,0.5811 38.6,1.0759 59.5,1.0995 43.53483,0.049 71.0334,1.7245 124.49999,7.5847 7.425,0.8138 27.49242,1.7655 44.59427,2.1149 l 31.09426,0.6353 0.65574,-3.2787 c 0.36065,-1.8033 0.65573,-4.8577 0.65573,-6.7877 0,-1.9299 0.41096,-5.1362 0.91325,-7.125 0.50229,-1.9888 1.43733,-6.091 2.07786,-9.116 1.3997,-6.6102 9.41189,-27.0914 12.53257,-32.0364 1.2274,-1.945 3.1856,-5.6302 4.3514,-8.1893 1.1658,-2.5592 2.5891,-4.9431 3.1628,-5.2977 0.9146,-0.5652 4.453,-5.4922 7.4621,-10.3903 3.0718,-5.0001 6.568,-9.2129 11.959,-14.41 6.7778,-6.5339 15.9161,-13.6763 17.4983,-13.6763 0.5735,0 1.0427,-0.2378 1.0427,-0.5284 0,-0.6341 -6.5455,-14.9308 -8.457,-18.4716 -3.1197,-5.7792 -8.6529,-21.4659 -12.3456,-35 -9.2047,-33.7366 -13.0465,-52.226 -15.1505,-72.916 -0.5826,-5.7289 -1.4842,-12.0289 -2.0037,-14 -0.5195,-1.9712 -1.2136,-6.059 -1.5424,-9.084 -0.3288,-3.025 -1.0017,-8.875 -1.4952,-13 -2.4968,-20.8666 -3.9515,-46.0337 -3.9771,-68.8082 -0.024,-21.588 0.3475,-28.1292 2.5291,-44.5 3.0512,-22.8963 7.5553,-46.3581 10.8834,-56.6918 1.3286,-4.125 2.9419,-9.525 3.5852,-12 0.6432,-2.475 2.66,-8.325 4.4817,-13 1.8217,-4.675 4.5473,-12.775 6.0569,-18 2.7121,-9.387 7.0718,-21.8371 11.7308,-33.5 4.8499,-12.1407 16.936,-40.2448 20.8572,-48.5 2.2207,-4.675 5.66485,-12.1 7.65385,-16.5 1.9889,-4.4 5.3289,-10.8331 7.4221,-14.2959 l 3.8058,-6.2958 0.6197,-38.7042 c 0.647,-40.401199 0.8697,-53.175399 1.1674,-66.954099 0.098,-4.5375 0.5949,-8.25 1.1041,-8.25 0.5605,0 0.7646,19.0355 0.5174,48.25 -0.4581,54.137099 -0.1701,60.144199 3.0295,63.194199 2.4613,2.3462 7.886,11.2508 12.2179,20.0558 1.6235,3.3 3.8918,7.8 5.0405,10 10.8324,20.7452 13.9689,28.9848 15.2264,40 0.746,6.5357 2.2926,12.2858 5.6484,21 2.5416,6.6 5.2347,15.1015 5.9846,18.8923 1.0002,5.055 2.3027,8.0976 4.8866,11.4141 2.9596,3.7988 3.5229,5.3226 3.5229,9.5298 0,2.7544 0.7111,8.8028 1.5802,13.4409 0.8691,4.6382 2.4704,15.4732 3.5585,24.078 1.088,8.6047 2.3283,18.3449 2.7561,21.6449 0.4278,3.3 1.5437,14.1 2.4797,24 0.936,9.9 2.3699,23.625 3.1864,30.5 1.9786,16.6594 1.8419,32.4617 -0.5783,66.8408 -2.4735,35.1365 -7.1926,64.741 -13.8731,87.0314 -1.5869,5.2953 -3.4508,11.8778 -4.1419,14.6278 -0.6911,2.75 -2.1333,8.15 -3.2048,12 -1.0715,3.85 -3.4372,13.075 -5.257,20.5 -4.7517,19.3866 -6.6985,25.4237 -12.3052,38.1582 -1.1279,2.562 -1.7845,4.9245 -1.4591,5.25 0.3255,0.3255 0.1692,0.5918 -0.3474,0.5918 -0.5166,0 -1.8133,1.6229 -2.8815,3.6064 -1.9254,3.5753 -1.9252,3.6184 0.023,5.0055 6.5235,4.6454 17.4648,14.2593 17.4648,15.3459 0,0.3866 2.2796,3.1418 5.0657,6.1226 7.9168,8.47 21.9712,30.9371 24.3377,38.9061 0.7736,2.6049 1.8468,5.586 2.3849,6.6248 3.0802,5.9459 6.1198,15.398 8.4858,26.3887 4.3078,20.0099 5.68,27.8704 5.5864,32 -0.056,2.475 0.01,4.95 0.1372,5.5 0.1316,0.55 0.1723,3.25 0.09,6 -0.1166,3.9175 -0.3695,4.6211 -1.1681,3.25 -1.5234,-2.6156 -2.9199,-2.1138 -2.9199,1.0491 0,3.0752 -1.381,3.8189 -12.6511,6.8124 -8.8968,2.3631 -16.1789,3.253 -35.849,4.3808 -15.6056,0.8947 -24.3494,1.6851 -38.1607,3.4492 -1.7384,0.2221 -3.3421,0.2224 -3.5639,6e-4 z m 59.4261,-23.2463 c 3.1358,-0.4663 5.4718,-0.4762 5.191,-0.022 -0.2808,0.4543 5.1806,0.826 12.1365,0.826 l 12.6469,0 -0.7131,-4.25 c -1.2748,-7.5969 -2.0594,-8.7927 -5.5817,-8.5068 -3.9123,0.3176 -4.9413,-1.7602 -1.3217,-2.6687 2.4206,-0.6076 2.5893,-0.9687 1.977,-4.2326 -0.3682,-1.9626 -1.4974,-4.4571 -2.5093,-5.5432 -2.2364,-2.4006 -3.2522,-5.7987 -1.7334,-5.7987 0.7993,0 0.795,-0.3113 -0.015,-1.1218 -0.617,-0.6171 -0.9013,-1.6965 -0.6318,-2.3989 0.2695,-0.7023 0.01,-1.5741 -0.5781,-1.9372 -0.5875,-0.363 -1.0682,-1.9654 -1.0682,-3.5606 0,-1.851 -0.9951,-3.8656 -2.75,-5.5676 -1.5125,-1.4668 -2.1059,-2.308 -1.3187,-1.8693 0.7872,0.4386 0.01,-1.6419 -1.7341,-4.6235 -1.7409,-2.9816 -3.6564,-5.2973 -4.2567,-5.146 -0.6608,0.1666 -0.8442,-0.5035 -0.4648,-1.6988 0.4086,-1.2874 -0.087,-2.6874 -1.4246,-4.0251 -1.1282,-1.1282 -2.0655,-2.6137 -2.083,-3.3012 -0.04,-1.5832 -2.9682,-5.5291 -2.9682,-4.0001 0,0.6226 0.45,1.4102 1,1.7501 0.55,0.3399 1,1.0571 1,1.5938 0,0.5367 -1.35,-0.5618 -3,-2.441 -1.65,-1.8792 -2.9931,-3.8074 -2.9847,-4.2848 0.01,-0.4774 0.434,-0.206 0.9456,0.6031 0.5117,0.809 1.1497,1.2516 1.4178,0.9835 0.7549,-0.7548 -6.3359,-8.4902 -7.4982,-8.1798 -0.5661,0.1511 -0.7832,-0.1232 -0.4827,-0.6095 0.6145,-0.9942 -4.794,-6.1653 -6.4482,-6.1653 -0.5872,0 -0.7423,-0.5265 -0.3446,-1.1699 0.4894,-0.7919 0.1731,-0.9589 -0.9788,-0.5169 -1.1197,0.4297 -1.9108,0.06 -2.3124,-1.08 -0.8124,-2.3064 -5.8615,-6.7014 -10.2616,-8.9322 -1.9537,-0.9906 -4.0227,-2.3997 -4.5977,-3.1315 -1.1341,-1.4434 -7.8793,-2.4323 -10.7045,-1.5693 -0.9625,0.294 -1.75,1.1793 -1.75,1.9672 0,0.8721 -1.0061,1.4326 -2.5714,1.4326 -2.637,0 -5.4286,2.0203 -5.4286,3.9286 0,0.5893 -0.45,1.0714 -1,1.0714 -0.55,0 -1,0.45 -1,1 0,0.55 0.6891,1 1.5314,1 2.4134,0 2.7968,2.6027 0.9129,6.1982 -3.2236,6.1528 -3.4126,6.7209 -2.7824,8.3632 0.3535,0.9212 0.018,2.0346 -0.7662,2.5395 -0.9615,0.6194 -1.0574,1.1324 -0.308,1.6491 1.8422,1.2702 2.3121,5.0883 0.7825,6.3578 -1.2022,0.9977 -1.0871,1.353 0.741,2.2867 2.7645,1.412 2.6427,2.9264 -0.3022,3.7558 -1.8489,0.5208 -1.5862,0.6702 1.3186,0.75 4.3813,0.1204 6.8983,2.4262 4.26,3.9027 -1.4593,0.8166 -1.2379,1.071 1.4446,1.6602 2.1246,0.4666 3.1678,1.2879 3.1678,2.4938 0,2.6271 -1.8684,3.7342 -7.6014,4.5044 l -5.1014,0.6854 -0.6441,11.1766 c -0.3542,6.1471 -0.6461,14.8679 -0.6486,19.3796 0,4.5116 -0.5092,9.3105 -1.126,10.6643 l -1.1214,2.4613 -6.4531,-3.547 c -5.35445,-2.9432 -7.50435,-3.5578 -12.62845,-3.6102 -3.3965,-0.035 -7.7505,0.1818 -9.6755,0.481 -1.925,0.2992 -8.3966,1.3347 -14.3814,2.3012 -7.1939,1.1618 -13.2937,1.555 -18,1.1605 -19.12616,-1.6033 -28.61908,-1.8496 -28.61908,-0.7425 0,0.6206 0.5625,1.1353 1.25,1.1437 0.83448,0.01 0.75415,0.3288 -0.24164,0.9584 -2.924,1.8486 0.56316,2.7956 14.99162,4.0711 27.9094,2.4672 122.00305,3.2624 136.20145,1.151 z m -40.851,-61.1898 c -1.2715,-0.513 -2.6276,-2.4274 -3.3197,-4.6866 -0.6436,-2.1007 -1.5593,-4.7194 -2.0349,-5.8194 -0.4757,-1.1 -1.3706,-5.15 -1.9888,-9 -0.6183,-3.85 -1.3715,-8.0125 -1.674,-9.25 -0.3915,-1.6018 -0.1036,-2.25 0.9995,-2.25 2.1406,0 2.7983,1.3191 5.2355,10.5 1.378,5.1909 2.6167,8.0006 3.5278,8.0016 0.9921,10e-4 1.3057,0.9825 1.0688,3.3445 -0.3005,2.9963 -0.1186,3.274 1.755,2.6794 2.4982,-0.7929 3.6011,1.2635 2.6691,4.9767 -0.656,2.6137 -2.4284,3.0409 -6.2383,1.5038 z m 32.6495,-15.565 c 0,-0.8575 0.45,-1.2809 1,-0.941 0.55,0.3399 1,1.0415 1,1.559 0,0.5176 -0.45,0.941 -1,0.941 -0.55,0 -1,-0.7016 -1,-1.559 z m -146.99993,70.9191 c 0,-2.5935 -0.0922,-2.6294 -5.25,-2.045 -2.8875,0.3273 -7.05,1.1665 -9.25,1.8649 l -4,1.27 5.5,0.612 c 12.0568,1.3416 13,1.2181 13,-1.7019 z m 92.12573,-15.9386 c 0.3442,-3.8068 0.6817,-11.0537 0.75,-16.1041 0.1118,-8.2669 -0.069,-9.244 -1.8142,-9.7978 -1.0661,-0.3384 -3.2738,-2.1361 -4.9058,-3.995 -1.6321,-1.8588 -3.2043,-3.1427 -3.4939,-2.8532 -0.28945,0.2895 -0.27895,-0.4195 0.023,-1.5755 0.4069,-1.556 -0.52825,-3.1481 -3.60025,-6.1295 -3.1509,-3.0577 -3.9329,-4.4155 -3.2482,-5.639 0.496,-0.8863 0.6648,-2.5179 0.375,-3.6258 -0.3556,-1.3601 -0.1508,-1.782 0.6308,-1.2989 0.7469,0.4615 1.1678,-0.1039 1.1866,-1.5937 0.016,-1.2699 1.2836,-7.3379 2.817,-13.4844 2.41805,-9.6928 2.61355,-11.5081 1.4735,-13.6842 -1.0484,-2.0008 -1.8719,-2.4079 -4.0671,-2.0102 -4.0635,0.7361 -10.8661,3.9319 -13.4057,6.298 -1.2232,1.1395 -2.7443,2.0718 -3.3803,2.0718 -0.6361,0 -1.9268,0.8512 -2.8683,1.8915 -1.7415,1.9243 -5.5982,1.8152 -5.5982,-0.1585 0,-0.5685 1.1187,-3.3285 2.486,-6.1333 2.1374,-4.3845 3.4583,-9.111 5.0582,-18.0997 1.1672,-6.558 1.2192,-8.5 0.2274,-8.5 -3.108,0 -17.3598,13.4671 -24.5453,23.1938 -3.6445,4.9332 -7.3208,10.9583 -16.0513,26.3062 -7.44957,13.096 -13.28681,32.3425 -14.59081,48.1087 l -0.42254,5.1087 8.16919,0.6536 c 4.49306,0.3595 14.69416,1.7721 22.66916,3.1393 10.2728,1.761 18.4357,2.5049 28,2.5519 7.425,0.036 16.2,0.6726 19.49995,1.4137 3.3,0.7411 6.45,1.2394 7,1.1073 0.55,-0.1321 1.2816,-3.3549 1.6258,-7.1617 z m 23.5246,-109.1715 c 5.4001,-4.9751 7.0627,-7.753 9.2793,-15.5042 1.0215,-3.5721 2.5328,-8.0138 3.3583,-9.8703 0.8256,-1.8565 2.5035,-6.5255 3.7288,-10.3755 1.2253,-3.85 2.7994,-8.575 3.498,-10.5 0.6987,-1.925 1.7537,-5.3 2.3446,-7.5 0.591,-2.2 2.2087,-7.825 3.595,-12.5 1.3863,-4.675 3.3759,-11.65 4.4212,-15.5 1.0453,-3.85 3.3511,-12.175 5.124,-18.5 1.7729,-6.325 3.3962,-12.85 3.6074,-14.5 0.2112,-1.65 0.8345,-5.25 1.3851,-8 2.7858,-13.9144 6.2705,-36.1104 7.0648,-45 5.1908,-58.0935 5.2445,-73.8033 0.4032,-118 -0.7832,-7.15 -1.6936,-16.15 -2.0231,-20 -0.3295,-3.85 -1.0045,-8.2812 -1.4999,-9.8472 -0.4955,-1.566 -1.39,-7.866 -1.9879,-14 -1.5833,-16.2446 -6.789,-44.9035 -8.4619,-46.586 -1.2369,-1.2439 -1.6706,-1.2109 -3.2849,0.25 -2.4831,2.2472 -10.4196,2.2246 -13.9876,-0.04 -5.4929,-3.486 -11.7063,-11.0161 -13.9512,-16.9078 -1.2301,-3.228 -2.7172,-9.9192 -3.3048,-14.8692 -0.5876,-4.95 -1.6815,-11.7 -2.4309,-15 -0.7493,-3.3 -1.6567,-8.7 -2.0162,-12 -0.9334,-8.5659 -3.1389,-21.0304 -4.9369,-27.9014 -1.4694,-5.6154 -2.5748,-8.146 -2.5748,-5.8946 0,0.5706 -0.6555,7.5081 -1.4567,15.4167 -2.5995,25.6608 -3.5607,47.59 -3.9834,90.8793 -0.3483,35.6689 -0.8204,46.679 -2.937,68.5 -3.9422,40.642 -4.1078,44.8502 -3.9154,99.5 0.1734,49.2535 0.6539,60.5283 3.8783,91 1.4044,13.2717 6.9919,49.0613 8.1183,52 0.3162,0.825 1.6151,-5.025 2.8864,-13 1.2712,-7.975 3.0359,-17.875 3.9215,-22 0.8856,-4.125 2.0031,-12.45 2.4834,-18.5 1.3583,-17.1108 2.9568,-33.286 4.1011,-41.5 0.5747,-4.125 1.4551,-20.325 1.9564,-36 0.5014,-15.675 1.4183,-35.025 2.0376,-43 1.5803,-20.3505 2.2236,-67.6878 0.9307,-68.4869 -0.6117,-0.3781 -1.0346,-6.1213 -1.0547,-14.3221 -0.018,-7.5301 -0.6403,-20.216 -1.3821,-28.191 -0.7417,-7.975 -1.228,-14.6362 -1.0806,-14.8026 0.1474,-0.1664 1.1985,1.2029 2.3357,3.0429 1.7286,2.7969 2.2579,6.2082 3.2279,20.8026 0.6381,9.6014 1.3176,19.0321 1.51,20.9571 0.5901,5.9049 0.4613,94.1284 -0.1389,95.0995 -0.3097,0.5011 -0.968,15.4212 -1.4629,33.1558 -0.495,17.7346 -1.6198,39.2197 -2.4996,47.7447 -1.5629,15.1424 -2.9029,33.8761 -3.9343,55 -0.2819,5.775 -1.2179,14.775 -2.0799,20 -0.862,5.225 -1.9492,12.875 -2.416,17 -0.4668,4.125 -1.4057,10.875 -2.0863,15 -1.2374,7.4991 -0.5701,27 0.9238,27 0.3832,0 2.5284,-1.6875 4.7671,-3.75 z m -0.9997,-333.718 c -0.3099,-0.8074 -0.133,-1.7339 0.393,-2.059 0.526,-0.3251 0.9563,0.3355 0.9563,1.468 0,2.4146 -0.5561,2.6581 -1.3493,0.591 z m 26.266,-47.8993 c -0.2292,-0.2021 -2.2167,-0.6415 -4.4167,-0.9764 -2.7878,-0.4245 -3.3939,-0.3345 -2,0.297 1.9197,0.8698 7.2758,1.4368 6.4167,0.6794 z m -18.3791,-20.3827 c -0.3735,-1.5125 -1.0764,-3.1566 -1.5619,-3.6535 -0.4855,-0.4969 -0.3781,0.7406 0.2386,2.75 1.3054,4.2533 2.3221,4.9475 1.3233,0.9035 z m -1.8545,-9.4375 c -0.3192,-0.7977 -0.5562,-0.5608 -0.6042,0.6042 -0.043,1.0541 0.193,1.6448 0.5253,1.3125 0.3323,-0.3323 0.3678,-1.1948 0.079,-1.9167 z m -1.8229,-19.5529 c 0.9233,-2.5322 2.2886,-4.3268 3.5411,-4.6543 2.4292,-0.6352 6.5987,0.272 6.5987,1.4357 0,0.4533 0.8711,1.1007 1.9357,1.4386 1.0647,0.3379 2.1573,1.3807 2.4281,2.3174 0.2708,0.9366 0.2424,-0.097 -0.063,-2.297 -0.7818,-5.6289 -4.0165,-13.0686 -15.6523,-36 -6.5624,-12.9331 -10.255,-19.2524 -10.4502,-17.8844 -0.3376,2.365 1.7868,14.4907 4.2721,24.3844 0.898,3.575 1.7802,9.875 1.9605,14 0.5586,12.7847 1.7986,22.0902 2.8949,21.7248 0.5676,-0.1892 1.7082,-2.1985 2.5346,-4.4652 z m 7.1398,-2.2596 c 0.825,-0.5332 1.05,-0.9694 0.5,-0.9694 -0.55,0 -1.675,0.4362 -2.5,0.9694 -0.825,0.5332 -1.05,0.9694 -0.5,0.9694 0.55,0 1.675,-0.4362 2.5,-0.9694 z m 239.7333,579.8759 c 0.6784,-0.6834 1.4853,-0.9907 1.7932,-0.6828 0.3078,0.3079 -0.2472,0.8671 -1.2334,1.2426 -1.4252,0.5427 -1.54,0.4278 -0.5598,-0.5598 z m -2.7333,-2.9349 c 0,-0.5825 0.45,-0.7809 1,-0.441 0.55,0.3399 1,0.8165 1,1.059 0,0.2426 -0.45,0.441 -1,0.441 -0.55,0 -1,-0.4766 -1,-1.059 z m -62,-27.3186 c 0,-0.2076 0.675,-0.9377 1.5,-1.6224 1.2285,-1.0196 1.5,-0.9512 1.5,0.3776 0,0.8923 -0.675,1.6224 -1.5,1.6224 -0.825,0 -1.5,-0.1699 -1.5,-0.3776 z m 59,-33.1224 c 0,-1.0833 1.1111,-1.5 4,-1.5 2.8889,0 4,0.4167 4,1.5 0,1.0833 -1.1111,1.5 -4,1.5 -2.8889,0 -4,-0.4167 -4,-1.5 z m -593.99992,-49.216 c -1.44786,-0.5388 -5.37746,-4.1556 -4.78896,-4.4078 0.15893,-0.068 2.31396,-0.2681 4.78896,-0.4443 2.475,-0.1762 7.18204,-1.0205 10.4601,-1.8761 4.20312,-1.0972 10.71652,-1.5558 22.09501,-1.5558 14.1201,0 16.32496,-0.2185 17.65691,-1.75 2.35478,-2.7075 3.03778,-9.5427 1.28854,-12.8952 -1.39185,-2.6675 -1.40128,-3.7034 -0.12618,-13.8548 0.0691,-0.55 0.93129,-1.6007 1.91602,-2.335 1.10968,-0.8274 1.56687,-2.0393 1.20246,-3.1875 -0.32337,-1.0188 -0.008,-2.7805 0.70014,-3.9149 1.60271,-2.5664 4.31201,-2.8193 3.3479,-0.3126 -0.84474,2.1963 -0.81379,18.3753 0.0394,20.5987 0.42705,1.1129 0.1097,1.6513 -0.97333,1.6513 -0.88385,0 -1.60699,0.4766 -1.60699,1.059 0,0.5825 0.50031,0.7498 1.1118,0.3719 0.6115,-0.3779 1.47088,-0.1061 1.90975,0.604 1.14821,1.8578 0.0204,16.3211 -1.3381,17.1607 -0.6284,0.3884 -2.95174,1.0042 -5.16299,1.3684 -2.21126,0.3642 -4.53071,1.073 -5.15436,1.5752 -1.88941,1.5213 -7.68006,1.2669 -11.07063,-0.4864 -4.95522,-2.5624 -16.53422,-2.1909 -26.00736,0.8344 -8.38425,2.6777 -8.06877,2.6226 -10.2881,1.7968 z m 55.99999,-12.4507 c 0,-4.9348 -0.49432,-4.7758 -1.29559,0.4167 -0.32055,2.0773 -0.16065,3.75 0.35846,3.75 0.51542,0 0.93713,-1.875 0.93713,-4.1667 z m 3.92349,-16.0243 c -0.0421,-3.4699 -0.22726,-7.0965 -0.41152,-8.059 -0.18425,-0.9625 0.0163,-1.75 0.44567,-1.75 1.80131,0 2.77179,14.4312 1.04236,15.5 -0.62354,0.3854 -1.0288,-1.7571 -1.07651,-5.691 z m -250.54639,-154.3915 -3.87534,-4.6371 -5.00088,0.697 c -2.75048,0.3833 -7.47588,0.8248 -10.50088,0.9811 -3.025,0.1563 -7.17305,1.0171 -9.21788,1.9128 -4.34231,1.9022 -13.8471,2.1637 -15.58212,0.4287 -0.66,-0.66 -1.2,-2.1653 -1.2,-3.345 0,-6.0218 -8.0315,-7.0943 -17.95841,-2.3981 -4.13298,1.9552 -7.29092,2.8464 -8.77052,2.475 -1.27166,-0.3192 -3.24031,-0.084 -4.37478,0.5236 -1.59157,0.8518 -2.44335,0.7712 -3.72948,-0.3531 -0.91674,-0.8013 -4.0392,-1.6721 -6.9388,-1.935 -9.88598,-0.8964 -8.17083,-3.2155 3.84085,-5.1934 10.56764,-1.7401 30.30859,-7.5637 35.69383,-10.5298 0.95552,-0.5262 4.43731,-1.6906 7.73731,-2.5874 6.30358,-1.7131 13.66391,-5.3644 29.63688,-14.7024 5.30029,-3.0986 12.50029,-6.8337 16,-8.3002 11.35597,-4.7585 49.41814,-24.1313 62.05247,-31.5834 6.77086,-3.9936 21.76066,-13.1627 33.31066,-20.3758 25.92672,-16.1916 44.25705,-23.849 52.27346,-21.837 4.68026,1.1747 22.42596,9.2581 25.6469,11.6826 2.92163,2.1992 8.44424,4.9903 15.07964,7.6213 5.56666,2.2073 12.43033,7.1893 14.48522,10.5142 2.02922,3.2833 4.34584,16.4976 3.34807,19.0978 -0.60075,1.5655 -5.00233,3.0243 -11.46453,3.7996 -6.20462,0.7445 -21.79156,6.2409 -35.86876,12.6485 -6.325,2.879 -14.71157,6.2044 -18.63683,7.3899 -3.92525,1.1854 -7.75025,2.6416 -8.5,3.2359 -0.74974,0.5942 -6.31317,3.8317 -12.36317,7.1944 -11.09793,6.1683 -19.58096,9.4477 -22.01896,8.5122 -0.72862,-0.2796 -2.19134,-0.045 -3.25049,0.5222 -1.05916,0.5669 -4.58182,1.5002 -7.82814,2.0741 -3.24633,0.5739 -7.16697,1.3274 -8.71254,1.6744 -2.33304,0.5239 -2.90847,0.255 -3.38941,-1.5841 -0.51628,-1.9743 -1.08074,-2.1655 -5.18987,-1.7585 -2.53583,0.2512 -6.35991,1.1312 -8.49796,1.9554 -3.15164,1.2151 -3.93208,2.0441 -4.12354,4.3804 -0.12989,1.5849 -1.20498,4.5141 -2.38909,6.5092 -2.27818,3.8384 -5.30068,5.0957 -15.35183,6.3857 -4.88988,0.6276 -12.91395,3.2185 -27.74818,8.9598 -13.36203,5.1714 -12.25162,5.1751 -16.6229,-0.055 z M 87.631776,471.39259 c -2.16813,-2.5225 -3.14831,-8.4479 -1.39746,-8.4479 0.46889,0 0.80639,-3.3446 0.75,-7.4325 -0.096,-6.956 0.0899,-7.635 2.89746,-10.5893 4.17679,-4.395 6.7214,-5.5359 19.839604,-8.8953 12.73375,-3.2608 15.2323,-4.3464 22.14067,-9.6197 4.06126,-3.1 12.69421,-7.9027 31.01973,-17.2569 2.2,-1.123 6.45774,-3.0913 9.46165,-4.3741 5.31774,-2.2707 41.31995,-20.7094 47.75556,-24.4582 1.76947,-1.0307 7.61947,-4.5912 13,-7.9123 5.38053,-3.321 11.80778,-7.1008 14.28278,-8.3995 2.475,-1.2988 7.425,-4.2495 11,-6.5572 3.575,-2.3077 11.38034,-6.1099 17.3452,-8.4493 l 10.8452,-4.2535 8.50609,2.1334 c 10.93435,2.7424 17.14094,5.9342 23.1362,11.898 5.12433,5.0974 12.86998,8.6539 27.66731,12.7037 6.83069,1.8695 18.3467,7.6283 18.92251,9.4627 0.25897,0.825 0.75915,3.1301 1.11151,5.1223 0.63001,3.5622 0.57691,3.6343 -3.19668,4.3416 -2.11054,0.3957 -6.53734,2.1994 -9.83734,4.0084 -3.3,1.809 -8.02641,3.5439 -10.50314,3.8554 -2.47673,0.3115 -6.56189,1.4771 -9.07812,2.5901 -2.51623,1.1131 -8.69815,2.4908 -13.73758,3.0617 -5.03944,0.5709 -11.07928,1.6724 -13.42189,2.4478 -2.3426,0.7754 -10.01767,2.5611 -17.05572,3.9683 -11.4474,2.2888 -21.76561,5.7827 -44.70355,15.1372 -1.925,0.785 -6.81113,2.3211 -10.85807,3.4135 -4.04695,1.0924 -12.59695,3.9902 -19,6.4395 -14.95927,5.7224 -34.97701,12.1297 -42.64192,13.6489 -3.3,0.6541 -6.68242,1.5485 -7.51649,1.9875 -0.83407,0.439 -4.65907,1.4717 -8.5,2.2948 -3.84093,0.8231 -10.80851,2.6158 -15.48351,3.9837 -4.675,1.3679 -10.075,2.7952 -12,3.1717 -1.925,0.3765 -7.55,1.9669 -12.5,3.5343 -4.95,1.5673 -10.20282,3.1069 -11.67293,3.4212 -1.47011,0.3143 -4.01278,1.6989 -5.650394,3.0769 -4.51937,3.8028 -8.19596,4.1201 -10.92668,0.9431 z m 163.749994,-7.4479 c -1.2819,-0.8284 -1.24555,-0.9716 0.25,-0.9847 0.9625,-0.01 1.75,0.4347 1.75,0.9847 0,1.2196 -0.11279,1.2196 -2,0 z m -14.46222,-2.3487 c -2.08612,-1.5254 -3.50025,-0.77 12.46222,-6.6571 12.58365,-4.6409 22.03281,-7.667 29.6838,-9.5062 4.07641,-0.9799 14.05134,-5.2761 24.8162,-10.6883 19.30428,-9.7055 36.37614,-18.6049 38,-19.8092 1.01623,-0.7536 9.0402,-5.1768 20.27203,-11.1748 7.85792,-4.1963 36.12166,-23.3317 46.69118,-31.6113 4.42023,-3.4626 14.11179,-12.0601 21.53679,-19.1055 18.07519,-17.1512 24.93789,-23.0326 31.55518,-27.0431 5.08095,-3.0794 6.39874,-3.4061 15.51009,-3.8448 5.79758,-0.2792 12.35475,0.016 15.69605,0.7063 3.15627,0.6522 7.31368,1.2751 9.23868,1.3842 3.76811,0.2137 4.1624,0.5635 21,18.6298 4.67501,5.0162 8.84412,10.141 9.26469,11.3886 0.51812,1.5368 -0.0157,4.1886 -1.65545,8.2241 -2.18167,5.3692 -2.84818,6.1111 -6.76468,7.53 -2.38951,0.8657 -7.71956,3.6147 -11.84456,6.1089 -4.125,2.4941 -13.575,7.6863 -21,11.5382 -7.425,3.8518 -17.1135,9.4278 -21.53001,12.3911 -4.4165,2.9633 -10.85281,6.9628 -14.30289,8.8878 -3.45009,1.925 -9.73659,5.5807 -13.97,8.1238 -4.2334,2.5431 -10.6221,6.069 -14.1971,7.8353 -3.575,1.7663 -11.74497,5.8731 -18.15549,9.1262 -12.2721,6.2276 -13.83709,6.8156 -11.88741,4.4664 1.01322,-1.2209 0.6791,-1.4093 -2.12755,-1.1998 -1.83125,0.1367 -4.67955,0.9662 -6.32955,1.8434 -4.22586,2.2466 -20.30618,8.4664 -31.24714,12.0863 -8.42617,2.7878 -9.49154,2.9335 -12,1.6405 -3.79728,-1.9572 -4.40066,-3.1013 -2.6537,-5.0317 0.96285,-1.0639 1.26868,-2.5688 0.85611,-4.2126 -0.5656,-2.2535 -0.93877,-2.4445 -3.14098,-1.6072 -3.08684,1.1736 -16.30235,10.1758 -16.30926,11.1096 -0.003,0.3741 1.4545,0.2616 3.23837,-0.25 4.67942,-1.342 5.67601,-1.0776 2.47693,0.6573 -1.52882,0.8291 -2.54638,1.8849 -2.26125,2.3463 0.55601,0.8996 -0.21075,1.1865 -10.94747,4.0958 -4.04436,1.0959 -7.36058,1.5214 -7.87186,1.0102 -0.4859,-0.4859 -1.39113,-0.7674 -2.01161,-0.6255 -0.62047,0.1418 -0.79064,0.069 -0.37814,-0.1615 1.47893,-0.8271 0.71182,-3.1301 -1.25,-3.7528 -1.1,-0.3491 -2,-0.949 -2,-1.3331 0,-0.384 -3.4875,-0.4006 -7.75,-0.037 -6.21823,0.5307 -9.12527,1.3887 -14.70817,4.3413 -6.16069,3.2581 -7.09022,3.4993 -8.11023,2.1043 -1.99908,-2.7339 -9.3005,-3.0032 -18.69869,-0.6895 -9.94942,2.4493 -14.6085,2.6566 -17.19513,0.7652 z m 93.27472,-6.3344 c 0.72187,-0.2889 1.58438,-0.2534 1.91667,0.079 0.33229,0.3323 -0.25834,0.5686 -1.3125,0.5252 -1.16495,-0.048 -1.4019,-0.2849 -0.60417,-0.6041 z m 513.1875,-184.3169 c 0,-0.55 0.47656,-1 1.05902,-1 0.58246,0 0.7809,0.45 0.44098,1 -0.33992,0.55 -0.81648,1 -1.05902,1 -0.24254,0 -0.44098,-0.45 -0.44098,-1 z M 1206.3817,11.731441 c -21.725,-0.94228 -48.5,-1.9010902 -59.5,-2.1306802 -11,-0.2296 -20.7897,-0.74511 -21.7548,-1.1456 -0.9652,-0.40049 -3.3354,-0.54364 -5.2671,-0.31812 -2.1733,0.25372 -3.3788,0.009 -3.1622,-0.64116 0.2386,-0.71663 21.3026,-1.14729 66.1826,-1.35313 53.9779,-0.24756 65.6386,-0.0675 64.7555,1 -0.5924,0.71607 -1.2293,2.42694 -1.4155,3.8019402 l -0.3385,2.5 -39.5,-1.71325 z M 111.88178,6.9446908 c 0.33992,-0.55 1.37898,-0.99311 2.30902,-0.98469 1.45727,0.0132 1.48367,0.14929 0.19098,0.98469 -1.95837,1.2656 -3.28218,1.2656 -2.5,0 z m 978.00002,-0.0929 c -3.3534,-0.39764 -0.9659,-0.64463 7.25,-0.75 6.7375,-0.0864 12.25,0.1879 12.25,0.60956 0,0.90222 -12.3271,0.991 -19.5,0.14044 z"
     id="path3175-0"
     inkscape:connector-curvature="0"
     clip-path="url(#clipPath2996)"
     transform="translate(-847.7572,-28.91361)" />
</svg>
